<svg width="24" height="25" viewBox="0 0 24 25" fill="none" xmlns="http://www.w3.org/2000/svg">
<path d="M12 0.119141C5.376 0.119141 0 5.49514 0 12.1191C0 18.7431 5.376 24.1191 12 24.1191C18.624 24.1191 24 18.7431 24 12.1191C24 5.49514 18.624 0.119141 12 0.119141ZM13.2 20.5191H10.8V18.1191H13.2V20.5191ZM15.684 11.2191L14.604 12.3231C13.74 13.1991 13.2 13.9191 13.2 15.7191H10.8V15.1191C10.8 13.7991 11.34 12.5991 12.204 11.7231L13.692 10.2111C14.136 9.77914 14.4 9.17914 14.4 8.51914C14.4 7.19914 13.32 6.11914 12 6.11914C10.68 6.11914 9.6 7.19914 9.6 8.51914H7.2C7.2 5.86714 9.348 3.71914 12 3.71914C14.652 3.71914 16.8 5.86714 16.8 8.51914C16.8 9.57514 16.368 10.5351 15.684 11.2191Z" fill="white"/>
</svg>
