<svg width="1920" height="343" viewBox="0 0 1920 343" fill="none" xmlns="http://www.w3.org/2000/svg">
<mask id="mask0_30_320" style="mask-type:alpha" maskUnits="userSpaceOnUse" x="0" y="0" width="1920" height="343">
<rect width="1920" height="343" fill="#F2F4F6"/>
</mask>
<g mask="url(#mask0_30_320)">
<path d="M899 10.5C901.778 13.2852 908.615 16.8801 912.256 18.5228C918.358 21.2766 924.472 24.0031 930.583 26.7266C937.781 29.9344 943.72 35.0521 950.739 38.5052C959.202 42.6682 968.572 46.2276 977.523 49.4589C987.094 52.914 996.677 57.2713 1006.68 59.1293C1017.3 61.1009 1028.18 65.9461 1037.9 70.4954C1047.1 74.8002 1056.95 78.7907 1065.73 83.8782C1071.95 87.4794 1079.46 89.1639 1085.25 93.1819C1087.01 94.4022 1092.3 97.1516 1094 98.5C1095 99 1094.81 102 1097.5 102" stroke="#203C64" stroke-opacity="0.3" stroke-linecap="round"/>
<path d="M1097.5 102C1101 102.5 1103.42 102.801 1106.41 103.31C1114.18 104.637 1122.3 102.669 1130.04 102.669C1135.67 102.669 1141.85 100.811 1147.36 99.7356C1153.77 98.4865 1160.01 97.722 1166.47 96.7108C1189.07 93.1691 1210.07 84.3957 1231.37 76.6825C1248.33 70.54 1262.64 59.4113 1278.54 51.0628C1291.84 44.0764 1303.05 33.1689 1313.55 22.6475" stroke="#203C64" stroke-opacity="0.3" stroke-linecap="round"/>
<path d="M1313 22.6475C1325.42 22.6475 1334.99 22.6475 1347.42 22.6475C1360.78 22.6475 1373.98 20.9976 1387.23 20.9976C1398.57 20.9976 1409.84 21.954 1421.14 22.6475C1434.27 23.4534 1447.02 28.421 1458.71 34.1969C1468.36 38.9691 1476.23 42.9689 1483.85 50.6045C1489.7 56.4743 1494.03 63.5279 1499.11 70.0828C1504.9 77.5414 1511.92 80.125 1520.41 83.6489C1527.33 86.5208 1535.6 86.0079 1542.9 86.8112C1551.13 87.7169 1559.11 88.6445 1567.4 88.6445C1579.47 88.6445 1587.98 82.8174 1598.84 78.9282C1611.24 74.4886 1623.55 72.2348 1636.68 71.1369C1671.2 68.2527 1705.67 69.9817 1739.75 62.6581C1759.38 58.4401 1779.44 56.7186 1798.94 51.7045C1820.07 46.2717 1839.83 35.6851 1859.36 26.1306C1867.11 22.3395 1875.9 20.0381 1884.09 17.606C1889.07 16.1258 1893.55 13.3458 1898.3 11.2813C1901.75 9.78434 1906.6 8.97542 1909.54 6.56071C1910.73 5.58741 1913.66 4.58162 1914.12 3.67334" stroke="#203C64" stroke-opacity="0.3" stroke-linecap="round"/>
<path d="M1919.87 101.844C1912.97 101.844 1906.13 103.781 1899.3 104.731C1893.7 105.512 1888.19 106.328 1882.67 107.435C1866.86 110.606 1850.57 112.429 1834.59 114.402C1815.18 116.797 1796.02 118.463 1776.54 119.81C1754.5 121.334 1732.27 121.375 1710.27 123.476C1691.55 125.264 1672.3 124.943 1653.5 124.943C1632.65 124.943 1611.85 124.118 1590.98 124.118C1574.74 124.118 1558.5 124.118 1542.25 124.118C1535.98 124.118 1529.98 123.643 1523.74 122.881C1519.4 122.349 1514.51 120.818 1510.17 120.818" stroke="#203C64" stroke-opacity="0.3" stroke-linecap="round"/>
<path d="M1510.17 119.993C1498.58 119.993 1488.79 115.651 1477.36 114.218C1468.31 113.085 1459.21 109.146 1450.07 107.619C1444.76 106.732 1440.15 104.828 1435.31 102.669C1422.92 97.1485 1408.34 94.7645 1394.99 93.5483C1387.99 92.9103 1380.91 91.9063 1373.97 90.7068C1363.68 88.9276 1353.15 89.5412 1342.8 88.0027C1333.15 86.5693 1322.83 85.3445 1313.09 85.3445C1304.94 85.3445 1297.04 83.6946 1288.96 83.6946C1278.7 83.6946 1268.78 82.0447 1258.61 82.0447C1245.75 82.0447 1233.28 82.0628 1220.63 83.6488C1212.23 84.7018 1212.77 85.1174 1204.5 86.5" stroke="#203C64" stroke-opacity="0.3" stroke-linecap="round"/>
<path d="M1097.5 102C1087.91 100.124 1080.42 96.2727 1071.17 93.1818C1062.41 90.2549 1053.46 89.5217 1044.53 87.6362C1036.85 86.0155 1027.58 85.3447 1019.75 85.3447C1012.95 85.3447 1006.47 84.5197 999.643 84.5197C994.274 84.5197 988.897 84.1745 983.646 85.3447C978.409 86.5117 973.663 88.6177 968.654 90.4778C958.153 94.378 949.608 102.088 939.22 105.969C918.342 113.769 896.829 119.823 875.873 126.959C869.214 129.227 862.91 133.137 856.174 135.163C850.185 136.965 843.645 137.671 837.846 139.609C824.827 143.96 811.37 146.809 798.357 151.158C795.242 152.2 792.117 153.102 789.033 154.275C783.764 156.279 779.409 159.637 774.27 161.654C768.445 163.94 760.93 170.426 757.405 175.449C753.595 180.878 747.616 185.75 742.642 190.115C738.919 193.381 735.654 197.282 731.719 200.014C727.16 203.179 721.761 207.865 716.27 209.089C712.811 209.86 709.803 212.108 706.398 213.031C701.443 214.373 696.331 215.137 691.407 216.514C680.824 219.471 669.464 220.884 659.093 224.351C650.907 227.087 641.644 230.372 633.178 232.005C627.062 233.184 621.226 235.854 615.445 237.963C609.459 240.145 603.171 241.355 597.162 243.737C590.601 246.339 584.114 247.979 577.235 249.512C570.176 251.085 563.669 254.345 556.668 256.295C552.455 257.469 547.927 261.737 543.916 263.903C538.461 266.848 532.593 270.026 527.873 274.261C525.294 276.575 522.136 280.482 519.235 282.098C517.696 282.955 512.721 286.846 512.242 288.285" stroke="#203C64" stroke-opacity="0.3" stroke-linecap="round"/>
<path d="M1913.29 132.367C1912.9 135.867 1904.65 138.4 1901.82 138.967C1896.21 140.093 1891.04 141.442 1885.27 141.442C1878.15 141.442 1871.27 143.917 1864.25 143.917C1856.75 143.917 1849.26 144.742 1841.67 144.742C1827.89 144.742 1814.31 143.917 1800.58 143.917C1792.29 143.917 1784.01 143.917 1775.72 143.917C1767.25 143.917 1758.83 146.392 1750.4 146.392C1736.97 146.392 1723.33 147.217 1709.67 147.217C1693.63 147.217 1677.92 143.917 1662 143.917C1643.09 143.917 1624.66 146.211 1605.97 147.996C1596.22 148.927 1586.27 149.259 1576.49 149.737C1571.1 150.001 1565.46 152.185 1560.04 152.991C1555.14 153.718 1550.13 154.823 1545.55 156.704C1541.93 158.188 1537.67 158.958 1533.85 159.775C1530.14 160.565 1526.1 162.751 1522.33 162.891C1510.31 163.337 1497.74 168.041 1485.86 170.132C1474.41 172.146 1462.65 173.53 1451.58 177.099C1443.64 179.657 1434.99 181.413 1427.26 184.34C1419.87 187.141 1411.81 188.246 1404 189.29C1399.39 189.906 1395.2 191.765 1390.47 191.765C1385.97 191.765 1381.48 191.765 1376.99 191.765C1366.99 191.765 1357.23 189.29 1347.37 189.29C1339.88 189.29 1330.97 187.802 1323.83 185.623C1316.4 183.355 1307.99 183.575 1300.57 181.04C1296.06 179.501 1290.33 179.584 1285.58 178.749C1279.38 177.659 1272.93 177.034 1266.65 176.915C1247.62 176.555 1229.34 175.23 1210.71 180.032C1202.37 182.182 1193.08 186.206 1185.21 189.931C1178.61 193.052 1171.28 194.616 1164.46 196.898C1160.51 198.215 1156.1 199.164 1152.3 200.656C1148.36 202.201 1143.28 204.025 1139.14 204.781C1129.93 206.459 1118.55 207.447 1110.34 211.564" stroke="#203C64" stroke-opacity="0.3" stroke-linecap="round"/>
<path d="M1 253.532C34.7364 245.864 67.5001 228.581 102.678 227.779C111.084 227.587 119.899 223.304 128.135 221.604C138.295 219.507 147.825 214.69 158.097 213.17C167.989 211.707 177.943 211.923 187.684 209.481C197.261 207.08 208.14 208.299 217.347 205.414C236.405 199.442 256.541 196.848 275.469 190.354C287.361 186.275 302.177 180.039 312.191 172.508C314.382 170.859 319.887 170.834 322.704 169.496C326.919 167.494 331.48 165.806 335.92 164.375C344.993 161.451 355.805 163.035 365.132 160.61C376.797 157.578 390.048 156.2 402.153 155.941C426.417 155.424 450.777 152.729 474.77 149.164C490.843 146.777 506.681 144.196 522.004 139.074C534.282 134.97 546.349 129.894 558.575 126.122C581.343 119.097 603.9 112.927 626.16 103.833C632.883 101.086 641.18 100.096 647.411 96.3028C659.169 89.1445 671.399 82.3927 683.306 75.369C722.43 52.2915 763.515 35.2403 807.963 26.5738C819.436 24.3368 831.335 24.6759 842.807 21.7545C850.685 19.7481 858.202 19.9973 866.011 18.3659C871.372 17.246 876.105 17.8124 881.255 16.0316C888.111 13.6608 891.971 12.262 899 10.5" stroke="#203C64" stroke-opacity="0.3" stroke-linecap="round"/>
<path d="M898.999 10.5C895.88 10.891 889.802 18.1804 887.712 20.3991C883.178 25.2132 880.777 31.4202 876.223 35.9865C865.055 47.1848 853.36 54.5166 838.751 60.7606C830.354 64.3496 820.821 65.8701 812.017 68.1402C801.903 70.7482 792.668 74.4715 782.881 78.0046C776.873 80.1735 770.754 82.045 764.708 84.104C759.682 85.8156 757.096 89.2759 752.543 91.5589C743.764 95.9602 736.137 101.708 728.212 107.447C716.072 116.24 697.631 123.329 683.005 126.122C671.73 128.276 661.139 133.705 649.739 135.61C644.759 136.442 639.359 136.495 634.645 138.321C627.342 141.151 620.876 140.21 613.318 141.333C577.539 146.648 541.658 154.549 505.933 161.062C494.255 163.191 484.89 168.138 473.793 171.604C464.252 174.584 453.643 177.207 444.356 181.017C424.202 189.284 402.647 193.803 381.577 199.315C369.064 202.588 357.254 207.708 344.631 210.46C337.106 212.1 329.667 216.936 321.952 216.936C315.152 216.936 306.026 220.722 299.649 222.96C294.775 224.67 289.307 223.594 284.255 225.068C277.805 226.95 270.372 227.121 263.679 228.08C234.722 232.228 207.752 236.868 180.174 247.357C152.983 257.7 126.591 269.567 100.424 281.996C79.6861 291.846 59.3662 303.417 38.2463 312.493C27.2452 317.221 17.6 322.659 5.05469 322.659" stroke="#203C64" stroke-opacity="0.3" stroke-linecap="round"/>
<path d="M508.129 288.285C500.245 288.285 492.276 287.905 484.408 288.331C478.895 288.63 473.44 290.164 467.954 290.714C460.309 291.481 452.973 294.589 445.148 294.885C435.368 295.255 425.295 298.05 415.485 299.01C402.831 300.248 390.513 302.665 377.961 304.601C366.348 306.393 354.833 308.697 343.225 310.559C334.392 311.976 325.113 312.482 316.624 315.509C312.273 317.061 306.634 317.733 302.044 318.03C295.167 318.475 288.531 321.595 281.934 323.346C268.778 326.838 255.688 330.762 242.491 334.071C217.335 340.377 191.459 343.427 166.757 351.441C157.013 354.602 147.948 359.12 137.917 361.707C127.113 364.493 116.249 367.655 105.375 369.911C84.4064 374.261 62.1611 374.599 41.6618 381.139C35.2128 383.197 28.4933 383.387 22.1 385.447C16.5376 387.24 10.406 386.66 4.64062 388.106" stroke="#203C64" stroke-opacity="0.3" stroke-linecap="round"/>
<path d="M346.059 210.739C339.332 214.112 333.72 218.935 326.726 221.876C316.138 226.328 306.681 232.145 295.509 235.488C284.54 238.77 274.312 243.583 263.15 246.166C259.626 246.982 256.694 249.502 253.095 250.52C249.999 251.396 247.014 253.04 243.954 254.095C229.379 259.119 214.497 262.881 200.031 268.028C181.953 274.46 163.893 280.727 145.779 287.002C138.408 289.555 130.992 293.363 124.343 297.314C121.182 299.192 117.65 300.609 114.379 302.31C110.535 304.308 107.211 307.328 103.182 308.909C98.3598 310.801 93.9891 312.973 89.3328 315.463C81.3414 319.737 71.4546 320.113 63.1437 323.759C55.5201 327.103 47.4833 329.433 39.8341 332.65C33.228 335.428 25.4537 336.477 19.1296 339.891C14.738 342.262 9.14593 346.858 3.81836 346.858" stroke="#203C64" stroke-opacity="0.3" stroke-linecap="round"/>
<path d="M598.625 303.135C622.884 303.135 645.881 296.085 668.737 289.294C675.695 287.226 683.976 286.3 691.178 285.765C698.071 285.253 704.279 283.336 711.243 283.336C724.219 283.336 737.525 281.686 750.458 281.686C762.393 281.686 774.289 278.386 786.199 278.386C796.737 278.386 807.331 276.736 817.919 276.736C824.189 276.736 830.208 275.405 836.201 273.803C842.37 272.153 849.415 273.127 855.488 270.961C860.413 269.205 867.948 267.902 873.222 267.661C878.997 267.398 886.358 264.849 891.687 262.712C896.039 260.966 900.547 260.286 904.759 258.174C907.914 256.592 911.239 255.519 914.357 253.82C916.806 252.486 919.701 252.838 921.989 251.116C925.869 248.199 932.231 247.47 936.752 245.387C942.873 242.567 950.318 241.92 956.68 239.613C962.992 237.323 970.224 236.987 976.287 234.25C981.043 232.104 986.458 231.063 991.507 229.713C1001.96 226.918 1012.9 223.885 1023.55 222.243C1028.08 221.543 1032.45 219.126 1037.12 218.989C1040.47 218.89 1044.7 219.23 1047.82 217.98C1054.92 215.13 1063.66 216.72 1070.9 214.451C1075.56 212.99 1081.58 212.519 1086.48 211.747C1089.79 211.227 1093.86 210.739 1097.18 210.739C1102.17 210.739 1106.88 209.914 1111.99 209.914" stroke="#203C64" stroke-opacity="0.3" stroke-linecap="round"/>
<rect width="1920" height="343" fill="url(#paint0_linear_30_320)"/>
</g>
<defs>
<linearGradient id="paint0_linear_30_320" x1="960" y1="0" x2="960" y2="343" gradientUnits="userSpaceOnUse">
<stop stop-color="#F2F4F6" stop-opacity="0"/>
<stop offset="0.770833" stop-color="#F2F4F6"/>
</linearGradient>
</defs>
</svg>
