<svg width="914" height="300" viewBox="0 0 914 300" fill="none" xmlns="http://www.w3.org/2000/svg">
<path d="M286 86.5C286.334 85.1652 304.449 79.5214 306.714 78.4762C314.707 74.787 323.163 68.7425 328.98 62.0951C332.148 58.4739 337.707 51.0019 338.748 46.3208C339.714 41.9707 343.853 34.3847 348.637 33.7014C352.981 33.0808 359.028 31.2596 362.834 34.8541C366.686 38.4927 369.001 43.3144 373.512 46.3815C374.692 47.1844 380.218 55.1892 380.307 56.6955C380.477 59.5908 384.311 64.7044 385.767 67.6162" stroke="#203C64" stroke-opacity="0.3" stroke-linecap="round"/>
<path d="M385.768 67.6162C394.058 67.6162 406.983 68.5536 413.919 63.0052C416.752 60.7388 416.613 53.3676 417.68 49.9004C418.868 46.0394 421.074 41.9846 423.99 39.2224C430.949 32.63 437.822 26.1586 446.074 20.6572C450.63 17.6197 454.258 14.5677 458.087 10.5859C461.132 7.4184 462.903 3.4515 466.581 1" stroke="#203C64" stroke-opacity="0.3" stroke-linecap="round"/>
<path d="M466.58 1C469.064 2.39694 473.603 7.23544 475.074 9.73655C476.769 12.6174 480.1 12.7968 482.961 14.1048C490.906 17.7369 501.303 14.8644 508.079 21.2639C511.214 24.2252 514.944 26.2166 517.665 29.8791C520.219 33.3178 520.767 38.7747 524.46 41.1639C527.82 43.338 529.381 47.42 532.104 50.1431C534.403 52.4415 537.47 57.7404 539.749 58.8796" stroke="#203C64" stroke-opacity="0.3" stroke-linecap="round"/>
<path d="M539.75 58.8797C552.595 57.5952 560.359 41.1686 572.512 38.1304" stroke="#203C64" stroke-opacity="0.3" stroke-linecap="round"/>
<path d="M572.512 38.1304C586.452 44.3793 597.301 49.8031 606.912 61.5492C608.541 63.5399 608.56 65.4848 610.673 67.0702C612.134 68.1654 613.615 68.688 614.071 70.2857C614.792 72.8075 626.803 71.9845 629.299 71.9845" stroke="#203C64" stroke-opacity="0.3" stroke-linecap="round"/>
<path d="M629.299 71.9845C633.811 72.5485 636.078 78.0497 640.22 78.5369C642.595 78.8163 644.828 81.4464 646.529 83.1479C652.149 88.7675 657.193 95.8554 664.912 99.2862C673.679 103.183 681.913 105.839 691.607 105.839C700.227 105.839 709.24 106.532 717.635 104.201C721.759 103.055 727.329 102.947 729.769 99.2862" stroke="#203C64" stroke-opacity="0.3" stroke-linecap="round"/>
<path d="M729.77 98.1941C733.312 104.885 741.617 106.765 746.697 111.845C749.465 114.613 756.205 116.123 758.163 119.55C760.087 122.917 769.971 127.394 773.392 129.318C778.251 132.052 783.598 134.802 787.103 139.086C791.438 144.384 798.137 148.356 803.181 153.04C807.759 157.291 812.758 161.326 817.984 164.81C823.668 168.599 829.812 171.822 835.457 175.731C839.707 178.673 845.003 179.234 849.897 181.191" stroke="#203C64" stroke-opacity="0.3" stroke-linecap="round"/>
<path d="M849.896 181.191C857.51 181.191 865.146 183.162 872.83 183.375C877.198 183.497 881.518 186.419 885.935 186.652C895.824 187.172 903.784 193.498 913.236 195.388" stroke="#203C64" stroke-opacity="0.3" stroke-linecap="round"/>
<path d="M286 86.5C278.693 86.5 274.534 87.2852 267.824 90.5497C262.634 93.0746 257.171 99.7754 251.443 100.378C247.107 100.835 241.674 106.775 238.096 109.115C234.698 111.336 231.832 113.105 229.602 116.517C225.345 123.027 216.982 126.672 210.794 130.956C207.5 133.236 203.459 138.071 199.873 139.45C196.128 140.891 194.361 144.167 190.894 146.002C186.862 148.137 183.059 150.648 178.76 152.798C167.392 158.482 154.817 161.414 143.328 166.994C130.16 173.391 116.585 176.827 102.315 179.25C83.3151 182.476 64.6347 189.565 45.0421 189.928C35.2172 190.11 25.3184 194.539 15.5563 195.388C12.4617 195.657 2.42955 197.616 1.35938 199.757" stroke="#203C64" stroke-opacity="0.3" stroke-linecap="round"/>
<path d="M467.672 13.0127C467.672 24.119 472.723 36.5855 468.764 47.4735C466.813 52.8379 463.964 58.6772 461.665 63.7332C459.8 67.8379 457.135 70.3023 455.416 74.1685C450.482 85.2704 444.738 91.7434 444.738 104.746C444.738 109.297 444.738 113.847 444.738 118.397C444.738 121.161 448.927 126.432 450.441 128.772C454.913 135.683 463.441 143.431 470.341 147.822C474.134 150.236 475.516 153.868 478.107 157.166C481.011 160.862 485.948 167.578 490.362 168.936C507.219 174.122 524.76 166.994 541.508 166.994C557.172 166.994 571.28 167.471 585.615 174.639" stroke="#203C64" stroke-opacity="0.3" stroke-linecap="round"/>
<path d="M374.846 52.3273C371.262 53.044 366.47 59.8608 365.26 63.0053C363.942 66.4315 359.949 70.643 359.557 74.1686C358.961 79.5328 353.412 85.8514 351.063 90.5497C348.331 96.0145 344.508 103.126 344.268 109.358C344.037 115.371 340.645 125.652 345.36 130.956C350.285 136.497 353.373 145.437 353.005 152.798C352.809 156.705 351.126 160.256 349.486 163.718C348.043 166.765 343.54 170.268 343.176 173.547C342.84 176.574 337.321 181.034 335.532 183.618C332.847 187.496 328.65 190.312 326.552 194.296C324.336 198.508 319.65 201.962 316.966 206.066C314.417 209.965 313.159 214.661 310.414 218.322" stroke="#203C64" stroke-opacity="0.3" stroke-linecap="round"/>
<path d="M410.885 68.7083C408.6 73.563 406.786 78.7342 402.998 82.6625C398.297 87.5379 393.062 92.1869 388.498 97.102C381.62 104.508 372.663 107.468 372.663 118.943C372.663 137.277 373.704 155.81 369.144 173.547C368.003 177.984 367.005 181.746 364.533 185.317C362.97 187.574 360.89 190.658 358.951 192.597C356.7 194.849 352.722 195.358 350.882 198.118C348.285 202.014 341.211 205.598 337.231 208.493C331.109 212.946 324.526 216.386 317.816 220.263C304.427 227.999 289.098 232.405 275.954 240.77C269.484 244.887 261.236 249.58 254.234 252.661C248.189 255.321 243.016 259.119 237.246 262.004" stroke="#203C64" stroke-opacity="0.3" stroke-linecap="round"/>
<path d="M541.934 58.8796C542.234 63.9865 546.172 70.9778 548.061 75.8067C549.239 78.817 551.762 80.0289 551.762 83.4512C551.762 85.8236 552.857 87.7834 553.4 90.0643C555.57 99.1775 557.223 107.014 557.223 116.517C557.223 125.8 557.504 131.396 562.137 139.632C566.581 147.533 572.479 154.288 576.88 162.626C581.975 172.28 587.8 181.223 587.8 192.658C587.8 202.342 586.708 212.181 586.708 221.598C586.708 247.614 587.935 279.612 607.458 299.135" stroke="#203C64" stroke-opacity="0.3" stroke-linecap="round"/>
<rect x="1" width="912" height="299" fill="url(#paint0_linear_30_215)"/>
<defs>
<linearGradient id="paint0_linear_30_215" x1="457" y1="0" x2="457" y2="299" gradientUnits="userSpaceOnUse">
<stop offset="0.322917" stop-color="#F2F4F6" stop-opacity="0"/>
<stop offset="1" stop-color="#F2F4F6"/>
</linearGradient>
</defs>
</svg>
