<svg width="436" height="192" viewBox="0 0 436 192" fill="none" xmlns="http://www.w3.org/2000/svg">
<g filter="url(#filter0_f_30_9)">
<path d="M20.1875 130.793V119.25H415.525V130.793H20.1875Z" fill="#F2F4F6"/>
<path d="M35.0703 62.3107C35.0703 63.525 35.4982 64.5495 36.354 65.3843C37.2098 66.2191 38.3264 66.9401 39.7037 67.5472C41.0809 68.1544 42.6388 68.6856 44.3771 69.141C46.1154 69.5963 47.8671 70.0643 49.6322 70.5449C52.467 71.3545 55.0411 72.2146 57.3544 73.1253C59.6677 74.036 61.6468 75.1238 63.2915 76.3886C64.9362 77.6535 66.2065 79.1523 67.1024 80.8852C67.9984 82.6181 68.4463 84.6988 68.4463 87.1273C68.4463 89.7835 67.8914 92.1741 66.7815 94.2991C65.6717 96.4241 64.0737 98.2328 61.9877 99.7254C59.9017 101.218 57.3811 102.363 54.426 103.159C51.4708 103.956 48.1479 104.355 44.4573 104.355C42.5585 104.355 40.6464 104.247 38.7208 104.032C36.7953 103.817 34.9366 103.507 33.1448 103.103C31.353 102.698 29.6681 102.205 28.0902 101.623C26.5124 101.041 25.1351 100.383 23.9584 99.6495C22.7816 98.9159 21.859 98.1127 21.1904 97.2399C20.5218 96.3672 20.1875 95.4375 20.1875 94.4509C20.1875 93.8185 20.3279 93.1987 20.6087 92.5916C20.8895 91.9844 21.2506 91.4342 21.6918 90.9409C22.1331 90.4476 22.6279 90.0492 23.1761 89.7456C23.7243 89.442 24.2659 89.2903 24.8008 89.2903C25.2822 89.2903 25.7502 89.3662 26.2048 89.5179C26.6595 89.6697 27.1208 89.8531 27.5888 90.0681C28.0568 90.2832 28.5382 90.5172 29.0329 90.7702C29.5277 91.0231 30.0559 91.2508 30.6175 91.4532C32.4628 92.2374 34.5354 92.9457 36.8354 93.5782C39.1353 94.2106 41.5423 94.5268 44.0562 94.5268C45.4201 94.5268 46.7105 94.4067 47.9273 94.1663C49.1441 93.926 50.2139 93.5592 51.1365 93.0659C52.0592 92.5726 52.7879 91.9338 53.3228 91.1496C53.8577 90.3654 54.1251 89.4168 54.1251 88.3037C54.1251 87.4689 53.9646 86.7226 53.6437 86.0649C53.3228 85.4071 52.8815 84.8316 52.3199 84.3383C51.7583 83.845 51.1031 83.415 50.3543 83.0481C49.6054 82.6813 48.8165 82.3588 47.9875 82.0805L46.1823 81.4734C45.8346 81.3722 45.5003 81.2647 45.1794 81.1509C44.8585 81.037 44.5108 80.9295 44.1364 80.8283L42.0504 80.2591C41.5957 80.158 41.208 80.0631 40.887 79.9745C40.5661 79.886 40.2786 79.7975 40.0245 79.7089C39.7705 79.6204 39.5231 79.5318 39.2824 79.4433C39.0417 79.3548 38.7609 79.2599 38.44 79.1587L34.6692 77.9065C32.2355 77.0717 30.1495 76.1989 28.4111 75.2882C26.6728 74.3775 25.2554 73.353 24.1589 72.2146C23.0624 71.0762 22.2534 69.7797 21.7319 68.3251C21.2104 66.8705 20.9497 65.1819 20.9497 63.2594C20.9497 60.7296 21.5046 58.4402 22.6145 56.3911C23.7243 54.3421 25.3156 52.5966 27.3882 51.1546C29.4608 49.7127 31.9747 48.5996 34.9299 47.8154C37.8851 47.0311 41.208 46.639 44.8986 46.639C46.2357 46.639 47.6933 46.7213 49.2711 46.8857C50.849 47.0501 52.4269 47.2968 54.0048 47.6256C55.5826 47.9545 57.1003 48.3782 58.5579 48.8968C60.0154 49.4154 61.3058 50.0225 62.429 50.7182C63.5522 51.4139 64.4548 52.2044 65.1368 53.0898C65.8187 53.9752 66.1597 54.9618 66.1597 56.0496C66.1597 56.6821 66.0327 57.2639 65.7786 57.7951C65.5245 58.3264 65.1836 58.7817 64.7557 59.1612C64.3278 59.5406 63.8263 59.8379 63.2513 60.0529C62.6764 60.2679 62.0813 60.3754 61.4662 60.3754C60.6639 60.3754 59.9285 60.211 59.2599 59.8821C58.0029 59.275 56.8329 58.7564 55.7498 58.3264C54.6667 57.8963 53.5902 57.5422 52.5205 57.2639C51.4507 56.9856 50.3476 56.7832 49.211 56.6567C48.0744 56.5303 46.8241 56.467 45.4602 56.467C44.1765 56.467 42.9128 56.5745 41.6693 56.7895C40.4257 57.0046 39.3158 57.3461 38.3397 57.8141C37.3636 58.2821 36.5746 58.8829 35.9729 59.6165C35.3712 60.3501 35.0703 61.2482 35.0703 62.3107L35.0703 62.3107Z" fill="#F2F4F6"/>
<path d="M112.693 55.2906C112.693 54.2534 112.887 53.2858 113.275 52.3877C113.663 51.4897 114.191 50.7054 114.859 50.0351C115.528 49.3647 116.31 48.8398 117.206 48.4603C118.102 48.0808 119.072 47.8911 120.115 47.8911C121.158 47.8911 122.127 48.0808 123.023 48.4603C123.919 48.8398 124.708 49.3647 125.39 50.0351C126.072 50.7054 126.607 51.4897 126.994 52.3877C127.382 53.2858 127.576 54.2534 127.576 55.2906V84.3572C127.576 87.6964 126.954 90.6119 125.711 93.1037C124.467 95.5955 122.729 97.6762 120.496 99.3458C118.263 101.015 115.608 102.268 112.533 103.102C109.457 103.937 106.088 104.355 102.424 104.355C98.8133 104.355 95.477 103.944 92.4149 103.121C89.3527 102.299 86.7051 101.066 84.472 99.4217C82.2389 97.7774 80.4939 95.703 79.237 93.1986C77.98 90.6942 77.3516 87.747 77.3516 84.3572V55.2906C77.3516 54.2534 77.5454 53.2858 77.9332 52.3877C78.321 51.4897 78.8492 50.7054 79.5178 50.0351C80.1864 49.3647 80.9686 48.8398 81.8645 48.4603C82.7604 48.0809 83.7299 47.8911 84.7729 47.8911C85.8159 47.8911 86.7854 48.0809 87.6813 48.4603C88.5772 48.8398 89.3661 49.3647 90.0481 50.0351C90.73 50.7054 91.2649 51.4897 91.6527 52.3877C92.0405 53.2858 92.2344 54.2534 92.2344 55.2906L92.2745 84.1295C92.2745 85.9509 92.5687 87.5193 93.1571 88.8348C93.7454 90.1503 94.5143 91.2254 95.4637 92.0602C96.4131 92.895 97.4962 93.5148 98.713 93.9195C99.9299 94.3243 101.167 94.5267 102.424 94.5267C103.707 94.5267 104.958 94.3243 106.174 93.9195C107.391 93.5148 108.481 92.895 109.444 92.0602C110.407 91.2254 111.189 90.1503 111.791 88.8348C112.392 87.5193 112.693 85.9509 112.693 84.1295L112.693 55.2906Z" fill="#F2F4F6"/>
<path d="M154.333 95.6271C154.333 96.6643 154.133 97.6319 153.731 98.53C153.33 99.428 152.789 100.212 152.107 100.883C151.425 101.553 150.636 102.078 149.74 102.457C148.844 102.837 147.875 103.027 146.832 103.027C145.789 103.027 144.819 102.837 143.923 102.457C143.027 102.078 142.245 101.553 141.576 100.883C140.908 100.212 140.38 99.428 139.992 98.53C139.604 97.6319 139.41 96.6643 139.41 95.6271V58.3263C139.41 56.8843 139.51 55.5246 139.711 54.2471C139.912 52.9695 140.339 51.8628 140.995 50.9268C141.65 49.9908 142.613 49.2508 143.883 48.7069C145.153 48.1631 146.872 47.8911 149.038 47.8911H163.519C166.595 47.8911 169.557 48.1441 172.405 48.65C175.253 49.156 177.774 50.0477 179.967 51.3252C182.16 52.6027 183.911 54.3419 185.222 56.5428C186.532 58.7437 187.188 61.5264 187.188 64.8909C187.188 67.8001 186.619 70.3235 185.483 72.4611C184.346 74.5987 182.741 76.3759 180.669 77.7925C178.596 79.2092 176.102 80.2653 173.187 80.961C170.272 81.6567 167.05 82.0045 163.519 82.0045H154.333V95.6271M161.072 73.5426C162.784 73.5426 164.349 73.4034 165.766 73.1252C167.183 72.8469 168.394 72.3852 169.396 71.7401C170.399 71.0951 171.182 70.2413 171.743 69.1788C172.305 68.1163 172.586 66.687 172.586 64.8909C172.586 63.1201 172.318 61.7224 171.783 60.6979C171.248 59.6733 170.506 58.8448 169.557 58.2124C168.607 57.58 167.471 57.1246 166.147 56.8464C164.823 56.5681 163.359 56.4289 161.754 56.4289H154.333V73.5426L161.072 73.5426Z" fill="#F2F4F6"/>
<path d="M210.134 95.6271C210.134 96.6643 209.933 97.6319 209.532 98.53C209.131 99.428 208.589 100.212 207.907 100.883C207.226 101.553 206.437 102.078 205.541 102.457C204.645 102.837 203.675 103.027 202.632 103.027C201.589 103.027 200.62 102.837 199.724 102.457C198.828 102.078 198.046 101.553 197.377 100.883C196.709 100.212 196.18 99.428 195.793 98.53C195.405 97.6319 195.211 96.6643 195.211 95.6271V58.3263C195.211 56.8843 195.311 55.5246 195.512 54.2471C195.712 52.9695 196.14 51.8628 196.796 50.9268C197.451 49.9908 198.414 49.2508 199.684 48.7069C200.954 48.1631 202.672 47.8911 204.839 47.8911H219.32C222.396 47.8911 225.358 48.1441 228.206 48.65C231.054 49.156 233.575 50.0477 235.768 51.3252C237.961 52.6027 239.712 54.3419 241.023 56.5428C242.333 58.7437 242.988 61.5264 242.988 64.8909C242.988 67.8001 242.42 70.3235 241.283 72.4611C240.147 74.5987 238.542 76.3759 236.47 77.7925C234.397 79.2092 231.903 80.2653 228.988 80.961C226.073 81.6567 222.85 82.0045 219.32 82.0045H210.134V95.6271ZM216.873 73.5426C218.585 73.5426 220.149 73.4034 221.567 73.1252C222.984 72.8469 224.194 72.3852 225.197 71.7401C226.2 71.0951 226.982 70.2413 227.544 69.1788C228.106 68.1163 228.386 66.687 228.386 64.8909C228.386 63.1201 228.119 61.7224 227.584 60.6979C227.049 59.6733 226.307 58.8448 225.358 58.2124C224.408 57.58 223.272 57.1246 221.948 56.8464C220.624 56.5681 219.16 56.4289 217.555 56.4289H210.134V73.5426L216.873 73.5426Z" fill="#F2F4F6"/>
<path d="M264.871 75.466C264.871 81.7397 265.927 86.4766 268.04 89.6767C270.152 92.8768 273.455 94.4769 277.948 94.4769C282.361 94.4769 285.65 92.8832 287.817 89.6957C289.983 86.5082 291.066 81.765 291.066 75.466C291.066 72.4303 290.805 69.7298 290.284 67.3645C289.762 64.9992 288.966 63.007 287.897 61.388C286.827 59.769 285.47 58.5358 283.825 57.6883C282.18 56.8408 280.221 56.4171 277.948 56.4171C275.702 56.4171 273.756 56.8408 272.111 57.6883C270.467 58.5358 269.109 59.769 268.04 61.388C266.97 63.007 266.174 64.9992 265.653 67.3645C265.131 69.7298 264.871 72.4303 264.871 75.466M249.266 75.466C249.266 71.2919 249.861 67.4341 251.051 63.8925C252.241 60.3508 254.026 57.3025 256.406 54.7475C258.786 52.1924 261.768 50.194 265.352 48.752C268.936 47.3101 273.134 46.5891 277.948 46.5891C282.628 46.5891 286.76 47.2848 290.344 48.6761C293.927 50.0675 296.923 52.0344 299.33 54.5767C301.737 57.1191 303.555 60.1611 304.785 63.7027C306.016 67.2444 306.631 71.1654 306.631 75.466C306.631 79.6906 306.029 83.5738 304.825 87.1154C303.622 90.657 301.817 93.699 299.41 96.2414C297.003 98.7838 294.008 100.763 290.424 102.18C286.84 103.597 282.682 104.305 277.948 104.305C273.321 104.305 269.223 103.622 265.653 102.256C262.082 100.89 259.081 98.9482 256.647 96.4311C254.213 93.914 252.375 90.8847 251.131 87.343C249.887 83.8014 249.266 79.8424 249.266 75.466V75.466Z" fill="#F2F4F6"/>
<path d="M330.68 95.6271C330.68 96.6643 330.486 97.6319 330.098 98.53C329.71 99.428 329.175 100.212 328.493 100.883C327.811 101.553 327.023 102.078 326.127 102.457C325.231 102.837 324.261 103.027 323.218 103.027C322.175 103.027 321.206 102.837 320.31 102.457C319.414 102.078 318.632 101.553 317.963 100.883C317.295 100.212 316.766 99.428 316.379 98.53C315.991 97.6319 315.797 96.6643 315.797 95.6271V54.8732C315.797 53.7095 316.044 52.6913 316.539 51.8185C317.034 50.9458 317.696 50.2185 318.525 49.6366C319.354 49.0548 320.323 48.6184 321.433 48.3275C322.543 48.0366 323.713 47.8911 324.943 47.8911H341.029C343.998 47.8911 346.846 48.0745 349.574 48.4413C352.302 48.8081 354.702 49.4975 356.775 50.5094C358.847 51.5213 360.505 52.9253 361.749 54.7214C362.993 56.5175 363.614 58.8575 363.614 61.7414C363.614 63.3098 363.387 64.796 362.932 66.2C362.478 67.604 361.742 68.8689 360.726 69.9946C359.71 71.1204 358.379 72.0817 356.735 72.8785C355.09 73.6754 353.077 74.2635 350.697 74.643V74.7948C352.409 74.9972 353.873 75.2944 355.09 75.6865C356.307 76.0786 357.343 76.5972 358.199 77.2423C359.055 77.8874 359.75 78.6653 360.285 79.576C360.82 80.4867 361.261 81.5618 361.609 82.8014C361.956 84.0409 362.237 85.4513 362.451 87.0324C362.665 88.6134 362.866 90.4032 363.053 92.4017C363.106 92.9582 363.146 93.4958 363.173 94.0144C363.2 94.533 363.213 95.0453 363.213 95.5512C363.213 96.639 363.106 97.6382 362.892 98.5489C362.678 99.4596 362.304 100.244 361.769 100.902C361.234 101.559 360.499 102.072 359.563 102.438C358.627 102.805 357.423 102.989 355.952 102.989C354.615 102.989 353.499 102.698 352.603 102.116C351.707 101.534 350.965 100.737 350.376 99.7253C349.788 98.7134 349.34 97.5434 349.032 96.2153C348.725 94.8872 348.478 93.4642 348.29 91.9464C348.023 89.7455 347.749 87.9051 347.468 86.4252C347.187 84.9453 346.739 83.75 346.124 82.8393C345.509 81.9286 344.633 81.2835 343.497 80.9041C342.36 80.5246 340.802 80.3349 338.823 80.3349H330.68V95.6271M336.857 71.5314C338.302 71.5314 339.746 71.4492 341.19 71.2848C342.634 71.1204 343.938 70.7788 345.101 70.2603C346.265 69.7417 347.207 68.9827 347.929 67.9835C348.651 66.9842 349.012 65.6498 349.012 63.9802C349.012 62.0576 348.665 60.6157 347.969 59.6544C347.274 58.6931 346.351 57.9721 345.201 57.4914C344.051 57.0108 342.721 56.7136 341.21 56.5997C339.699 56.4859 338.128 56.429 336.496 56.429H330.439V71.5314H336.857Z" fill="#F2F4F6"/>
<path d="M373.162 57.9468C372.387 57.9468 371.651 57.814 370.956 57.5484C370.261 57.2828 369.652 56.9223 369.131 56.4669C368.609 56.0116 368.195 55.4803 367.887 54.8732C367.58 54.266 367.426 53.621 367.426 52.9379C367.426 52.2549 367.58 51.6035 367.887 50.9837C368.195 50.3639 368.609 49.8264 369.131 49.371C369.652 48.9157 370.261 48.5552 370.956 48.2896C371.651 48.0239 372.387 47.8911 373.162 47.8911H409.788C410.563 47.8911 411.299 48.0239 411.994 48.2896C412.689 48.5552 413.298 48.9157 413.819 49.371C414.341 49.8264 414.755 50.3639 415.063 50.9837C415.37 51.6035 415.524 52.2549 415.524 52.9379C415.524 53.621 415.37 54.266 415.063 54.8732C414.755 55.4803 414.341 56.0116 413.819 56.4669C413.298 56.9223 412.689 57.2828 411.994 57.5484C411.299 57.814 410.563 57.9468 409.788 57.9468H399.037V95.6271C399.037 96.6643 398.843 97.6319 398.455 98.53C398.067 99.428 397.532 100.212 396.85 100.883C396.168 101.553 395.38 102.078 394.484 102.457C393.588 102.837 392.618 103.027 391.575 103.027C390.532 103.027 389.563 102.837 388.667 102.457C387.771 102.078 386.989 101.553 386.32 100.883C385.652 100.212 385.123 99.4281 384.736 98.53C384.348 97.6319 384.154 96.6643 384.154 95.6271V57.9468H373.162Z" fill="#F2F4F6"/>
<path d="M65.1367 150.549C65.1367 150.332 65.1777 150.14 65.2598 149.975C65.3419 149.809 65.454 149.672 65.5963 149.563C65.7385 149.455 65.8972 149.372 66.0722 149.315C66.2473 149.258 66.4278 149.229 66.6138 149.229C66.9749 149.229 67.3059 149.338 67.6068 149.555C67.9077 149.773 68.0582 150.104 68.0582 150.549V170.064C68.0582 170.281 68.0171 170.473 67.935 170.638C67.853 170.804 67.7408 170.941 67.5986 171.05C67.4563 171.158 67.2977 171.239 67.1226 171.29C66.9476 171.342 66.767 171.368 66.581 171.368C66.2199 171.368 65.889 171.259 65.5881 171.042C65.2872 170.825 65.1367 170.499 65.1367 170.064V150.549ZM79.569 151.061C79.569 150.772 79.6209 150.513 79.7249 150.285C79.8288 150.057 79.9656 149.866 80.1352 149.711C80.3048 149.555 80.5017 149.436 80.7261 149.354C80.9504 149.271 81.1829 149.229 81.4236 149.229C81.7409 149.229 82.05 149.302 82.3509 149.447C82.6518 149.592 82.9226 149.819 83.1633 150.13L95.5876 167.844V150.471C95.5876 150.264 95.6259 150.083 95.7025 149.928C95.7791 149.773 95.883 149.643 96.0143 149.54C96.1456 149.436 96.2933 149.359 96.4574 149.307C96.6216 149.255 96.7912 149.229 96.9662 149.229C97.1303 149.229 97.2945 149.255 97.4586 149.307C97.6227 149.359 97.7704 149.436 97.9017 149.54C98.033 149.643 98.137 149.773 98.2136 149.928C98.2901 150.083 98.3285 150.264 98.3285 150.471V169.536C98.3285 169.826 98.2737 170.085 98.1643 170.312C98.0549 170.54 97.9072 170.731 97.7212 170.887C97.5352 171.042 97.3246 171.161 97.0893 171.244C96.8541 171.327 96.6051 171.368 96.3426 171.368C96.0252 171.368 95.7079 171.295 95.3906 171.151C95.0733 171.006 94.7943 170.778 94.5536 170.467L82.3263 153.002V170.141C82.3263 170.348 82.2852 170.527 82.2032 170.677C82.1211 170.827 82.0144 170.954 81.8831 171.057C81.7518 171.161 81.6041 171.239 81.44 171.29C81.2759 171.342 81.1063 171.368 80.9312 171.368C80.5811 171.368 80.2665 171.267 79.9875 171.065C79.7085 170.863 79.569 170.555 79.569 170.141V151.061ZM109.495 150.549C109.495 150.156 109.631 149.837 109.905 149.594C110.178 149.351 110.501 149.229 110.873 149.229H122.444C122.849 149.229 123.15 149.346 123.347 149.579C123.544 149.812 123.642 150.068 123.642 150.347C123.642 150.637 123.544 150.898 123.347 151.131C123.15 151.364 122.849 151.481 122.444 151.481H112.416V158.715H122.017C122.422 158.715 122.726 158.832 122.928 159.064C123.131 159.297 123.232 159.553 123.232 159.833C123.232 160.123 123.131 160.384 122.928 160.617C122.726 160.85 122.422 160.966 122.017 160.966H112.416V170.064C112.416 170.281 112.375 170.473 112.293 170.638C112.211 170.804 112.099 170.941 111.957 171.05C111.814 171.158 111.656 171.239 111.481 171.29C111.305 171.342 111.13 171.368 110.955 171.368C110.583 171.368 110.247 171.259 109.946 171.042C109.645 170.825 109.495 170.499 109.495 170.064V150.549ZM135.727 160.376C135.727 161.453 135.875 162.552 136.171 163.675C136.466 164.798 136.931 165.787 137.566 166.641C138.2 167.494 139.015 168.178 140.011 168.69C141.007 169.202 142.205 169.458 143.605 169.458C144.995 169.458 146.188 169.202 147.183 168.69C148.179 168.178 148.997 167.494 149.637 166.641C150.277 165.787 150.745 164.798 151.04 163.675C151.336 162.552 151.483 161.453 151.483 160.376C151.483 159.31 151.336 158.216 151.04 157.093C150.745 155.97 150.277 154.979 149.637 154.12C148.997 153.261 148.179 152.575 147.183 152.063C146.188 151.55 144.995 151.294 143.605 151.294C142.205 151.294 141.007 151.55 140.011 152.063C139.015 152.575 138.2 153.261 137.566 154.12C136.931 154.979 136.466 155.97 136.171 157.093C135.875 158.216 135.727 159.31 135.727 160.376ZM132.593 160.376C132.593 158.793 132.833 157.292 133.315 155.874C133.796 154.456 134.502 153.24 135.432 152.226C136.362 151.211 137.514 150.427 138.887 149.874C140.26 149.32 141.833 149.043 143.605 149.043C145.378 149.043 146.948 149.32 148.316 149.874C149.684 150.427 150.83 151.211 151.754 152.226C152.679 153.24 153.382 154.456 153.863 155.874C154.345 157.292 154.585 158.793 154.585 160.376C154.585 161.96 154.345 163.461 153.863 164.879C153.382 166.296 152.679 167.51 151.754 168.519C150.83 169.528 149.684 170.312 148.316 170.871C146.948 171.43 145.378 171.709 143.605 171.709C141.833 171.709 140.26 171.43 138.887 170.871C137.514 170.312 136.362 169.528 135.432 168.519C134.502 167.51 133.796 166.296 133.315 164.879C132.833 163.461 132.593 161.96 132.593 160.376ZM165.161 150.565C165.161 150.378 165.199 150.205 165.276 150.044C165.352 149.884 165.456 149.744 165.587 149.625C165.719 149.506 165.875 149.411 166.055 149.338C166.236 149.266 166.425 149.229 166.621 149.229H173.646C174.653 149.229 175.651 149.31 176.641 149.47C177.632 149.63 178.521 149.923 179.308 150.347C180.096 150.772 180.734 151.356 181.22 152.101C181.707 152.847 181.951 153.804 181.951 154.974C181.951 156.195 181.535 157.227 180.703 158.071C179.872 158.914 178.69 159.497 177.158 159.817V159.879C177.946 159.993 178.594 160.187 179.103 160.462C179.612 160.736 180.02 161.08 180.326 161.494C180.632 161.908 180.859 162.389 181.007 162.938C181.155 163.486 181.272 164.092 181.36 164.754C181.447 165.562 181.524 166.291 181.59 166.943C181.655 167.595 181.71 168.149 181.754 168.604C181.798 169.132 181.836 169.603 181.869 170.017C181.869 170.462 181.721 170.799 181.426 171.026C181.13 171.254 180.785 171.368 180.392 171.368C180.041 171.368 179.713 171.264 179.407 171.057C179.1 170.85 178.925 170.535 178.882 170.11C178.75 168.848 178.644 167.74 178.562 166.788C178.48 165.836 178.381 165.029 178.266 164.366C178.151 163.704 177.998 163.16 177.807 162.736C177.615 162.312 177.344 161.978 176.994 161.735C176.644 161.491 176.195 161.323 175.648 161.23C175.101 161.137 174.417 161.09 173.597 161.09H168.066V170.064C168.066 170.281 168.025 170.473 167.943 170.638C167.861 170.804 167.748 170.941 167.606 171.05C167.464 171.158 167.305 171.239 167.13 171.29C166.955 171.342 166.78 171.368 166.605 171.368C166.244 171.368 165.913 171.259 165.612 171.042C165.311 170.825 165.161 170.499 165.161 170.064V150.565M172.366 158.932C172.858 158.932 173.362 158.922 173.876 158.901C174.39 158.881 174.891 158.829 175.378 158.746C175.864 158.663 176.321 158.539 176.748 158.374C177.175 158.208 177.549 157.985 177.872 157.706C178.195 157.427 178.449 157.08 178.635 156.666C178.821 156.252 178.914 155.75 178.914 155.16C178.914 154.58 178.832 154.083 178.668 153.67C178.504 153.256 178.285 152.909 178.012 152.629C177.738 152.35 177.418 152.13 177.052 151.97C176.685 151.809 176.297 151.687 175.886 151.605C175.476 151.522 175.06 151.468 174.639 151.442C174.218 151.416 173.81 151.403 173.416 151.403H168.066V158.932H172.366ZM205.886 167.797L213.649 151.543C213.857 151.077 214.057 150.694 214.248 150.394C214.44 150.094 214.642 149.858 214.855 149.687C215.069 149.517 215.304 149.398 215.561 149.33C215.818 149.263 216.116 149.229 216.456 149.229C216.773 149.229 217.071 149.276 217.35 149.369C217.629 149.462 217.872 149.607 218.08 149.804C218.288 150 218.452 150.251 218.573 150.557C218.693 150.862 218.753 151.222 218.753 151.636V170.141C218.753 170.545 218.611 170.85 218.327 171.057C218.042 171.264 217.73 171.368 217.391 171.368C217.063 171.368 216.762 171.267 216.488 171.065C216.215 170.863 216.078 170.555 216.078 170.141V151.915L207.593 169.66C207.418 170.053 207.169 170.351 206.846 170.553C206.523 170.755 206.181 170.856 205.82 170.856C205.47 170.856 205.142 170.76 204.835 170.568C204.529 170.377 204.283 170.074 204.097 169.66L195.644 152.039V170.141C195.644 170.545 195.502 170.85 195.218 171.057C194.933 171.264 194.621 171.368 194.282 171.368C193.954 171.368 193.653 171.267 193.38 171.065C193.106 170.863 192.969 170.555 192.969 170.141V151.636C192.969 151.222 193.029 150.862 193.15 150.557C193.27 150.251 193.434 150 193.642 149.804C193.85 149.607 194.093 149.462 194.372 149.369C194.651 149.276 194.95 149.229 195.267 149.229C195.606 149.229 195.91 149.263 196.178 149.33C196.446 149.398 196.695 149.519 196.925 149.695C197.154 149.871 197.37 150.112 197.573 150.417C197.775 150.722 197.986 151.108 198.205 151.574L205.804 167.797H205.886ZM249.007 169.691C249.062 169.867 249.089 170.012 249.089 170.126C249.089 170.312 249.045 170.483 248.958 170.638C248.87 170.794 248.753 170.925 248.605 171.034C248.457 171.143 248.29 171.226 248.104 171.283C247.918 171.339 247.732 171.368 247.546 171.368C247.284 171.368 247.038 171.303 246.808 171.174C246.578 171.044 246.414 170.835 246.316 170.545L244.215 165.577H232.611L230.527 170.545C230.417 170.845 230.253 171.057 230.034 171.182C229.815 171.306 229.58 171.368 229.329 171.368C229.143 171.368 228.962 171.339 228.787 171.283C228.612 171.226 228.456 171.143 228.319 171.034C228.182 170.925 228.07 170.796 227.983 170.646C227.895 170.496 227.851 170.333 227.851 170.157C227.851 170.022 227.884 169.867 227.95 169.691L235.762 151.651C235.97 151.134 236.178 150.715 236.386 150.394C236.594 150.073 236.804 149.827 237.018 149.656C237.231 149.486 237.456 149.372 237.691 149.315C237.926 149.258 238.18 149.229 238.454 149.229C238.727 149.229 238.982 149.258 239.217 149.315C239.452 149.372 239.679 149.488 239.898 149.664C240.117 149.84 240.328 150.086 240.53 150.402C240.733 150.717 240.943 151.134 241.162 151.651L249.007 169.691M238.405 151.512L233.432 163.481H243.394L238.438 151.512H238.405ZM254.281 151.496C253.876 151.496 253.573 151.377 253.37 151.139C253.168 150.901 253.067 150.642 253.067 150.363C253.067 150.073 253.168 149.812 253.37 149.579C253.573 149.346 253.876 149.229 254.281 149.229H269.955C270.371 149.229 270.68 149.346 270.883 149.579C271.085 149.812 271.186 150.073 271.186 150.363C271.186 150.642 271.082 150.901 270.874 151.139C270.666 151.377 270.36 151.496 269.955 151.496H263.636V170.048C263.636 170.266 263.595 170.457 263.513 170.623C263.431 170.788 263.319 170.925 263.177 171.034C263.035 171.143 262.876 171.226 262.701 171.283C262.526 171.339 262.351 171.368 262.176 171.368C261.804 171.368 261.467 171.257 261.166 171.034C260.865 170.812 260.715 170.483 260.715 170.048V151.496H254.281ZM280.219 150.549C280.219 150.332 280.26 150.14 280.342 149.975C280.424 149.809 280.536 149.672 280.678 149.563C280.82 149.455 280.979 149.372 281.154 149.315C281.329 149.258 281.51 149.229 281.696 149.229C282.057 149.229 282.388 149.338 282.689 149.555C282.99 149.773 283.14 150.104 283.14 150.549V170.064C283.14 170.281 283.099 170.473 283.017 170.638C282.935 170.804 282.823 170.941 282.681 171.05C282.538 171.158 282.38 171.239 282.205 171.29C282.03 171.342 281.849 171.368 281.663 171.368C281.302 171.368 280.971 171.259 280.67 171.042C280.369 170.825 280.219 170.499 280.219 170.064V150.549ZM293.797 160.469C293.797 158.824 294.038 157.292 294.52 155.874C295.001 154.456 295.707 153.24 296.637 152.226C297.567 151.211 298.718 150.427 300.092 149.874C301.465 149.32 303.038 149.043 304.81 149.043C306.583 149.043 308.15 149.32 309.512 149.874C310.875 150.427 312.021 151.209 312.951 152.218C313.881 153.227 314.584 154.438 315.06 155.851C315.536 157.264 315.774 158.793 315.774 160.438C315.774 161.235 315.678 162.061 315.487 162.915C315.295 163.768 315.027 164.568 314.682 165.313C314.338 166.058 313.916 166.749 313.419 167.386C312.921 168.022 312.371 168.615 311.769 169.163H315.478C315.872 169.163 316.168 169.277 316.365 169.505C316.562 169.733 316.66 169.981 316.66 170.25C316.66 170.54 316.562 170.796 316.365 171.019C316.168 171.241 315.872 171.358 315.478 171.368H307.764C307.196 171.482 306.684 171.567 306.23 171.624C305.776 171.681 305.303 171.709 304.81 171.709C303.038 171.709 301.465 171.44 300.092 170.902C298.718 170.364 297.567 169.59 296.637 168.581C295.707 167.572 295.001 166.359 294.52 164.941C294.038 163.523 293.797 162.032 293.797 160.469M296.932 160.469C296.932 161.525 297.08 162.614 297.375 163.737C297.671 164.86 298.136 165.849 298.77 166.703C299.405 167.557 300.22 168.24 301.216 168.752C302.212 169.264 303.41 169.52 304.81 169.52C306.2 169.52 307.392 169.264 308.388 168.752C309.384 168.24 310.202 167.557 310.842 166.703C311.482 165.849 311.95 164.86 312.245 163.737C312.541 162.614 312.688 161.525 312.688 160.469C312.688 159.341 312.541 158.216 312.245 157.093C311.95 155.97 311.482 154.979 310.842 154.12C310.202 153.261 309.384 152.575 308.388 152.063C307.392 151.55 306.2 151.294 304.81 151.294C303.41 151.294 302.212 151.55 301.216 152.063C300.22 152.575 299.405 153.261 298.77 154.12C298.136 154.979 297.671 155.97 297.375 157.093C297.08 158.216 296.932 159.341 296.932 160.469ZM326.185 150.549C326.185 150.332 326.226 150.14 326.308 149.975C326.39 149.809 326.5 149.672 326.636 149.563C326.773 149.455 326.932 149.372 327.112 149.315C327.293 149.258 327.476 149.229 327.662 149.229C328.023 149.229 328.354 149.338 328.655 149.555C328.956 149.773 329.106 150.104 329.106 150.549V163.605C329.106 164.609 329.284 165.476 329.64 166.206C329.995 166.936 330.463 167.541 331.043 168.022C331.623 168.504 332.285 168.861 333.029 169.094C333.773 169.326 334.534 169.443 335.31 169.443C336.087 169.443 336.848 169.326 337.592 169.094C338.336 168.861 339 168.504 339.586 168.022C340.171 167.541 340.642 166.936 340.997 166.206C341.353 165.476 341.531 164.609 341.531 163.605V150.549C341.531 150.332 341.572 150.14 341.654 149.975C341.736 149.809 341.845 149.672 341.982 149.563C342.119 149.455 342.277 149.372 342.458 149.315C342.639 149.258 342.822 149.229 343.008 149.229C343.369 149.229 343.7 149.338 344.001 149.555C344.302 149.773 344.452 150.104 344.452 150.549V163.668C344.452 165.034 344.198 166.219 343.689 167.223C343.18 168.227 342.502 169.062 341.654 169.73C340.806 170.398 339.832 170.894 338.732 171.22C337.633 171.546 336.492 171.709 335.31 171.709C334.129 171.709 332.988 171.546 331.888 171.22C330.789 170.894 329.818 170.398 328.975 169.73C328.133 169.062 327.457 168.227 326.948 167.223C326.439 166.219 326.185 165.034 326.185 163.668V150.549ZM357.424 171.368C357.238 171.368 357.06 171.332 356.89 171.259C356.721 171.187 356.567 171.088 356.431 170.964C356.294 170.84 356.185 170.698 356.102 170.537C356.02 170.377 355.979 170.209 355.979 170.033V150.565C355.979 150.399 356.012 150.236 356.078 150.076C356.143 149.915 356.239 149.773 356.365 149.649C356.491 149.524 356.636 149.423 356.8 149.346C356.964 149.268 357.145 149.229 357.342 149.229H369.585C369.99 149.229 370.291 149.346 370.488 149.579C370.685 149.812 370.783 150.068 370.783 150.347C370.783 150.637 370.685 150.898 370.488 151.131C370.291 151.364 369.99 151.481 369.585 151.481H358.852V158.855H369.06C369.476 158.855 369.782 158.971 369.979 159.204C370.176 159.437 370.275 159.693 370.275 159.973C370.275 160.252 370.173 160.508 369.971 160.741C369.769 160.974 369.465 161.09 369.06 161.09H358.852V169.117H370.045C370.45 169.117 370.751 169.233 370.948 169.466C371.145 169.699 371.243 169.955 371.243 170.235C371.243 170.524 371.145 170.786 370.948 171.019C370.751 171.252 370.45 171.368 370.045 171.368H357.424Z" fill="#F2F4F6"/>
<path d="M20.1875 31.7439V20.2007H415.525V31.7439H20.1875Z" fill="#F2F4F6"/>
</g>
<g clip-path="url(#clip0_30_9)">
<path d="M20.1875 131.561V120.017H415.525V131.561H20.1875Z" fill="#203C64"/>
<path d="M35.0703 63.0783C35.0703 64.2925 35.4982 65.3171 36.354 66.1519C37.2098 66.9867 38.3264 67.7077 39.7037 68.3148C41.0809 68.9219 42.6388 69.4532 44.3771 69.9085C46.1154 70.3639 47.8671 70.8319 49.6322 71.3125C52.467 72.122 55.0411 72.9821 57.3544 73.8928C59.6677 74.8036 61.6468 75.8913 63.2915 77.1562C64.9362 78.4211 66.2065 79.9199 67.1024 81.6528C67.9984 83.3857 68.4463 85.4664 68.4463 87.8949C68.4463 90.5511 67.8914 92.9417 66.7815 95.0667C65.6717 97.1916 64.0737 99.0004 61.9877 100.493C59.9017 101.985 57.3811 103.13 54.426 103.927C51.4708 104.724 48.1479 105.122 44.4573 105.122C42.5585 105.122 40.6464 105.015 38.7208 104.8C36.7953 104.585 34.9366 104.275 33.1448 103.87C31.353 103.465 29.6681 102.972 28.0902 102.39C26.5124 101.808 25.1351 101.151 23.9584 100.417C22.7816 99.6834 21.859 98.8803 21.1904 98.0075C20.5218 97.1347 20.1875 96.2051 20.1875 95.2185C20.1875 94.586 20.3279 93.9663 20.6087 93.3591C20.8895 92.752 21.2506 92.2018 21.6918 91.7085C22.1331 91.2152 22.6279 90.8167 23.1761 90.5132C23.7243 90.2096 24.2659 90.0578 24.8008 90.0578C25.2822 90.0578 25.7502 90.1337 26.2048 90.2855C26.6595 90.4373 27.1208 90.6207 27.5888 90.8357C28.0568 91.0508 28.5382 91.2848 29.0329 91.5377C29.5277 91.7907 30.0559 92.0184 30.6175 92.2208C32.4628 93.005 34.5354 93.7133 36.8354 94.3457C39.1353 94.9782 41.5423 95.2944 44.0562 95.2944C45.4201 95.2944 46.7105 95.1742 47.9273 94.9339C49.1441 94.6936 50.2139 94.3268 51.1365 93.8335C52.0592 93.3402 52.7879 92.7014 53.3228 91.9172C53.8577 91.133 54.1251 90.1843 54.1251 89.0713C54.1251 88.2365 53.9646 87.4902 53.6437 86.8324C53.3228 86.1747 52.8815 85.5992 52.3199 85.1059C51.7583 84.6126 51.1031 84.1825 50.3543 83.8157C49.6054 83.4489 48.8165 83.1264 47.9875 82.8481L46.1823 82.241C45.8346 82.1398 45.5003 82.0323 45.1794 81.9184C44.8585 81.8046 44.5108 81.6971 44.1364 81.5959L42.0504 81.0267C41.5957 80.9255 41.208 80.8307 40.887 80.7421C40.5661 80.6536 40.2786 80.565 40.0245 80.4765C39.7705 80.388 39.5231 80.2994 39.2824 80.2109C39.0417 80.1223 38.7609 80.0275 38.44 79.9263L34.6692 78.6741C32.2355 77.8393 30.1495 76.9665 28.4111 76.0558C26.6728 75.1451 25.2554 74.1205 24.1589 72.9822C23.0624 71.8438 22.2534 70.5473 21.7319 69.0927C21.2104 67.6381 20.9497 65.9495 20.9497 64.0269C20.9497 61.4972 21.5046 59.2078 22.6145 57.1587C23.7243 55.1096 25.3156 53.3641 27.3882 51.9222C29.4608 50.4802 31.9747 49.3672 34.9299 48.5829C37.8851 47.7987 41.208 47.4066 44.8986 47.4066C46.2357 47.4066 47.6933 47.4888 49.2711 47.6533C50.849 47.8177 52.4269 48.0643 54.0048 48.3932C55.5826 48.7221 57.1003 49.1458 58.5579 49.6644C60.0154 50.183 61.3058 50.7901 62.429 51.4858C63.5522 52.1815 64.4548 52.972 65.1368 53.8574C65.8187 54.7428 66.1597 55.7294 66.1597 56.8172C66.1597 57.4496 66.0327 58.0315 65.7786 58.5627C65.5245 59.0939 65.1836 59.5493 64.7557 59.9288C64.3278 60.3082 63.8263 60.6055 63.2513 60.8205C62.6764 61.0355 62.0813 61.143 61.4662 61.143C60.6639 61.143 59.9285 60.9786 59.2599 60.6497C58.0029 60.0426 56.8329 59.524 55.7498 59.0939C54.6667 58.6639 53.5902 58.3097 52.5205 58.0315C51.4507 57.7532 50.3476 57.5508 49.211 57.4243C48.0744 57.2978 46.8241 57.2346 45.4602 57.2346C44.1765 57.2346 42.9128 57.3421 41.6693 57.5571C40.4257 57.7722 39.3158 58.1137 38.3397 58.5817C37.3636 59.0497 36.5746 59.6505 35.9729 60.3841C35.3712 61.1177 35.0703 62.0158 35.0703 63.0783L35.0703 63.0783Z" fill="#203C64"/>
<path d="M112.693 56.0582C112.693 55.021 112.887 54.0533 113.275 53.1553C113.663 52.2572 114.191 51.473 114.859 50.8027C115.528 50.1323 116.31 49.6073 117.206 49.2279C118.102 48.8484 119.072 48.6587 120.115 48.6587C121.158 48.6587 122.127 48.8484 123.023 49.2279C123.919 49.6073 124.708 50.1323 125.39 50.8027C126.072 51.473 126.607 52.2572 126.994 53.1553C127.382 54.0533 127.576 55.021 127.576 56.0582V85.1248C127.576 88.464 126.954 91.3795 125.711 93.8713C124.467 96.3631 122.729 98.4438 120.496 100.113C118.263 101.783 115.608 103.035 112.533 103.87C109.457 104.705 106.088 105.122 102.424 105.122C98.8133 105.122 95.477 104.711 92.4149 103.889C89.3527 103.067 86.7051 101.834 84.472 100.189C82.2389 98.545 80.4939 96.4706 79.237 93.9662C77.98 91.4617 77.3516 88.5146 77.3516 85.1248V56.0582C77.3516 55.021 77.5454 54.0534 77.9332 53.1553C78.321 52.2573 78.8492 51.473 79.5178 50.8027C80.1864 50.1323 80.9686 49.6074 81.8645 49.2279C82.7604 48.8484 83.7299 48.6587 84.7729 48.6587C85.8159 48.6587 86.7854 48.8484 87.6813 49.2279C88.5772 49.6074 89.3661 50.1323 90.0481 50.8027C90.73 51.473 91.2649 52.2573 91.6527 53.1553C92.0405 54.0534 92.2344 55.021 92.2344 56.0582L92.2745 84.8971C92.2745 86.7185 92.5687 88.2869 93.1571 89.6024C93.7454 90.9178 94.5143 91.993 95.4637 92.8278C96.4131 93.6626 97.4962 94.2824 98.713 94.6871C99.9299 95.0919 101.167 95.2943 102.424 95.2943C103.707 95.2943 104.958 95.0919 106.174 94.6871C107.391 94.2824 108.481 93.6626 109.444 92.8278C110.407 91.993 111.189 90.9178 111.791 89.6024C112.392 88.2869 112.693 86.7185 112.693 84.8971L112.693 56.0582Z" fill="#203C64"/>
<path d="M154.333 96.3947C154.333 97.4319 154.133 98.3995 153.731 99.2976C153.33 100.196 152.789 100.98 152.107 101.65C151.425 102.321 150.636 102.846 149.74 103.225C148.844 103.604 147.875 103.794 146.832 103.794C145.789 103.794 144.819 103.604 143.923 103.225C143.027 102.846 142.245 102.321 141.576 101.65C140.908 100.98 140.38 100.196 139.992 99.2976C139.604 98.3995 139.41 97.4319 139.41 96.3947V59.0938C139.41 57.6519 139.51 56.2921 139.711 55.0146C139.912 53.7371 140.339 52.6304 140.995 51.6944C141.65 50.7584 142.613 50.0184 143.883 49.4745C145.153 48.9306 146.872 48.6587 149.038 48.6587H163.519C166.595 48.6587 169.557 48.9117 172.405 49.4176C175.253 49.9236 177.774 50.8153 179.967 52.0928C182.16 53.3703 183.911 55.1095 185.222 57.3104C186.532 59.5112 187.188 62.2939 187.188 65.6585C187.188 68.5677 186.619 71.0911 185.483 73.2287C184.346 75.3663 182.741 77.1434 180.669 78.5601C178.596 79.9767 176.102 81.0329 173.187 81.7286C170.272 82.4242 167.05 82.7721 163.519 82.7721H154.333V96.3947M161.072 74.3102C162.784 74.3102 164.349 74.171 165.766 73.8928C167.183 73.6145 168.394 73.1528 169.396 72.5077C170.399 71.8626 171.182 71.0089 171.743 69.9464C172.305 68.8839 172.586 67.4546 172.586 65.6585C172.586 63.8877 172.318 62.49 171.783 61.4654C171.248 60.4409 170.506 59.6124 169.557 58.98C168.607 58.3476 167.471 57.8922 166.147 57.6139C164.823 57.3357 163.359 57.1965 161.754 57.1965H154.333V74.3101L161.072 74.3102Z" fill="#203C64"/>
<path d="M210.134 96.3947C210.134 97.4319 209.933 98.3995 209.532 99.2976C209.131 100.196 208.589 100.98 207.907 101.65C207.226 102.321 206.437 102.846 205.541 103.225C204.645 103.604 203.675 103.794 202.632 103.794C201.589 103.794 200.62 103.604 199.724 103.225C198.828 102.846 198.046 102.321 197.377 101.65C196.709 100.98 196.18 100.196 195.793 99.2976C195.405 98.3995 195.211 97.4319 195.211 96.3947V59.0938C195.211 57.6519 195.311 56.2921 195.512 55.0146C195.712 53.7371 196.14 52.6304 196.796 51.6944C197.451 50.7584 198.414 50.0184 199.684 49.4745C200.954 48.9306 202.672 48.6587 204.839 48.6587H219.32C222.396 48.6587 225.358 48.9117 228.206 49.4176C231.054 49.9236 233.575 50.8153 235.768 52.0928C237.961 53.3703 239.712 55.1095 241.023 57.3104C242.333 59.5112 242.988 62.2939 242.988 65.6585C242.988 68.5677 242.42 71.0911 241.283 73.2287C240.147 75.3663 238.542 77.1434 236.47 78.5601C234.397 79.9767 231.903 81.0329 228.988 81.7286C226.073 82.4242 222.85 82.7721 219.32 82.7721H210.134V96.3947ZM216.873 74.3102C218.585 74.3102 220.149 74.171 221.567 73.8928C222.984 73.6145 224.194 73.1528 225.197 72.5077C226.2 71.8626 226.982 71.0089 227.544 69.9464C228.106 68.8839 228.386 67.4546 228.386 65.6585C228.386 63.8877 228.119 62.49 227.584 61.4654C227.049 60.4409 226.307 59.6124 225.358 58.98C224.408 58.3476 223.272 57.8922 221.948 57.6139C220.624 57.3357 219.16 57.1965 217.555 57.1965H210.134V74.3101L216.873 74.3102Z" fill="#203C64"/>
<path d="M264.871 76.2335C264.871 82.5073 265.927 87.2442 268.04 90.4443C270.152 93.6444 273.455 95.2445 277.948 95.2445C282.361 95.2445 285.65 93.6507 287.817 90.4633C289.983 87.2758 291.066 82.5326 291.066 76.2335C291.066 73.1979 290.805 70.4974 290.284 68.1321C289.762 65.7668 288.966 63.7746 287.897 62.1556C286.827 60.5366 285.47 59.3033 283.825 58.4559C282.18 57.6084 280.221 57.1847 277.948 57.1847C275.702 57.1847 273.756 57.6084 272.111 58.4559C270.467 59.3033 269.109 60.5366 268.04 62.1556C266.97 63.7746 266.174 65.7668 265.653 68.1321C265.131 70.4974 264.871 73.1979 264.871 76.2335M249.266 76.2335C249.266 72.0595 249.861 68.2017 251.051 64.66C252.241 61.1184 254.026 58.0701 256.406 55.5151C258.786 52.96 261.768 50.9615 265.352 49.5196C268.936 48.0776 273.134 47.3567 277.948 47.3567C282.628 47.3567 286.76 48.0524 290.344 49.4437C293.927 50.8351 296.923 52.8019 299.33 55.3443C301.737 57.8867 303.555 60.9287 304.785 64.4703C306.016 68.0119 306.631 71.933 306.631 76.2335C306.631 80.4582 306.029 84.3413 304.825 87.883C303.622 91.4246 301.817 94.4666 299.41 97.009C297.003 99.5513 294.008 101.531 290.424 102.947C286.84 104.364 282.682 105.072 277.948 105.072C273.321 105.072 269.223 104.389 265.653 103.023C262.082 101.657 259.081 99.7158 256.647 97.1987C254.213 94.6816 252.375 91.6522 251.131 88.1106C249.887 84.569 249.266 80.61 249.266 76.2335V76.2335Z" fill="#203C64"/>
<path d="M330.68 96.3947C330.68 97.4319 330.486 98.3995 330.098 99.2976C329.71 100.196 329.175 100.98 328.493 101.65C327.811 102.321 327.023 102.846 326.127 103.225C325.231 103.604 324.261 103.794 323.218 103.794C322.175 103.794 321.206 103.604 320.31 103.225C319.414 102.846 318.632 102.321 317.963 101.65C317.295 100.98 316.766 100.196 316.379 99.2976C315.991 98.3995 315.797 97.4319 315.797 96.3947V55.6407C315.797 54.4771 316.044 53.4589 316.539 52.5861C317.034 51.7134 317.696 50.986 318.525 50.4042C319.354 49.8224 320.323 49.386 321.433 49.0951C322.543 48.8042 323.713 48.6587 324.943 48.6587H341.029C343.998 48.6587 346.846 48.8421 349.574 49.2089C352.302 49.5757 354.702 50.2651 356.775 51.277C358.847 52.2889 360.505 53.6929 361.749 55.489C362.993 57.2851 363.614 59.6251 363.614 62.509C363.614 64.0774 363.387 65.5636 362.932 66.9676C362.478 68.3716 361.742 69.6365 360.726 70.7622C359.71 71.8879 358.379 72.8492 356.735 73.6461C355.09 74.443 353.077 75.0311 350.697 75.4106V75.5624C352.409 75.7647 353.873 76.062 355.09 76.4541C356.307 76.8462 357.343 77.3648 358.199 78.0099C359.055 78.655 359.75 79.4328 360.285 80.3435C360.82 81.2542 361.261 82.3294 361.609 83.5689C361.956 84.8085 362.237 86.2189 362.451 87.7999C362.665 89.381 362.866 91.1708 363.053 93.1693C363.106 93.7258 363.146 94.2634 363.173 94.782C363.2 95.3006 363.213 95.8128 363.213 96.3188C363.213 97.4066 363.106 98.4058 362.892 99.3165C362.678 100.227 362.304 101.011 361.769 101.669C361.234 102.327 360.499 102.839 359.563 103.206C358.627 103.573 357.423 103.756 355.952 103.756C354.615 103.756 353.499 103.465 352.603 102.883C351.707 102.302 350.965 101.505 350.376 100.493C349.788 99.481 349.34 98.311 349.032 96.9829C348.725 95.6547 348.478 94.2318 348.29 92.7139C348.023 90.5131 347.749 88.6727 347.468 87.1928C347.187 85.7129 346.739 84.5176 346.124 83.6069C345.509 82.6962 344.633 82.0511 343.497 81.6717C342.36 81.2922 340.802 81.1025 338.823 81.1025H330.68V96.3947M336.857 72.299C338.302 72.299 339.746 72.2168 341.19 72.0524C342.634 71.8879 343.938 71.5464 345.101 71.0278C346.265 70.5092 347.207 69.7503 347.929 68.7511C348.651 67.7518 349.012 66.4174 349.012 64.7478C349.012 62.8252 348.665 61.3832 347.969 60.4219C347.274 59.4606 346.351 58.7397 345.201 58.259C344.051 57.7784 342.721 57.4811 341.21 57.3673C339.699 57.2535 338.128 57.1965 336.496 57.1965H330.439V72.299H336.857Z" fill="#203C64"/>
<path d="M373.162 58.7144C372.387 58.7144 371.651 58.5816 370.956 58.316C370.261 58.0503 369.652 57.6899 369.131 57.2345C368.609 56.7791 368.195 56.2479 367.887 55.6407C367.58 55.0336 367.426 54.3885 367.426 53.7055C367.426 53.0225 367.58 52.3711 367.887 51.7513C368.195 51.1315 368.609 50.5939 369.131 50.1386C369.652 49.6833 370.261 49.3228 370.956 49.0571C371.651 48.7915 372.387 48.6587 373.162 48.6587H409.788C410.563 48.6587 411.299 48.7915 411.994 49.0571C412.689 49.3228 413.298 49.6832 413.819 50.1386C414.341 50.5939 414.755 51.1315 415.063 51.7513C415.37 52.3711 415.524 53.0225 415.524 53.7055C415.524 54.3885 415.37 55.0336 415.063 55.6407C414.755 56.2479 414.341 56.7791 413.819 57.2345C413.298 57.6898 412.689 58.0503 411.994 58.316C411.299 58.5816 410.563 58.7144 409.788 58.7144H399.037V96.3947C399.037 97.4319 398.843 98.3995 398.455 99.2976C398.067 100.196 397.532 100.98 396.85 101.65C396.168 102.321 395.38 102.846 394.484 103.225C393.588 103.604 392.618 103.794 391.575 103.794C390.532 103.794 389.563 103.604 388.667 103.225C387.771 102.846 386.989 102.321 386.32 101.65C385.652 100.98 385.123 100.196 384.736 99.2976C384.348 98.3995 384.154 97.4319 384.154 96.3947V58.7144H373.162Z" fill="#203C64"/>
<path d="M65.1367 151.317C65.1367 151.099 65.1777 150.908 65.2598 150.742C65.3419 150.577 65.454 150.439 65.5963 150.331C65.7385 150.222 65.8972 150.139 66.0722 150.082C66.2473 150.025 66.4278 149.997 66.6138 149.997C66.9749 149.997 67.3059 150.106 67.6068 150.323C67.9077 150.54 68.0582 150.872 68.0582 151.317V170.831C68.0582 171.049 68.0171 171.24 67.935 171.406C67.853 171.571 67.7408 171.709 67.5986 171.817C67.4563 171.926 67.2977 172.006 67.1226 172.058C66.9476 172.11 66.767 172.136 66.581 172.136C66.2199 172.136 65.889 172.027 65.5881 171.809C65.2872 171.592 65.1367 171.266 65.1367 170.831V151.317ZM79.569 151.829C79.569 151.539 79.6209 151.28 79.7249 151.053C79.8288 150.825 79.9656 150.633 80.1352 150.478C80.3048 150.323 80.5017 150.204 80.7261 150.121C80.9504 150.038 81.1829 149.997 81.4236 149.997C81.7409 149.997 82.05 150.069 82.3509 150.214C82.6518 150.359 82.9226 150.587 83.1633 150.897L95.5876 168.611V151.239C95.5876 151.032 95.6259 150.851 95.7025 150.696C95.7791 150.54 95.883 150.411 96.0143 150.307C96.1456 150.204 96.2933 150.126 96.4574 150.075C96.6216 150.023 96.7912 149.997 96.9662 149.997C97.1303 149.997 97.2945 150.023 97.4586 150.075C97.6227 150.126 97.7704 150.204 97.9017 150.307C98.033 150.411 98.137 150.54 98.2136 150.696C98.2901 150.851 98.3285 151.032 98.3285 151.239V170.304C98.3285 170.593 98.2737 170.852 98.1643 171.08C98.0549 171.307 97.9072 171.499 97.7212 171.654C97.5352 171.809 97.3246 171.928 97.0893 172.011C96.8541 172.094 96.6051 172.135 96.3426 172.135C96.0252 172.135 95.7079 172.063 95.3906 171.918C95.0733 171.773 94.7943 171.546 94.5536 171.235L82.3263 153.77V170.909C82.3263 171.116 82.2852 171.295 82.2032 171.445C82.1211 171.595 82.0144 171.722 81.8831 171.825C81.7518 171.928 81.6041 172.006 81.44 172.058C81.2759 172.11 81.1063 172.136 80.9312 172.136C80.5811 172.136 80.2665 172.035 79.9875 171.833C79.7085 171.631 79.569 171.323 79.569 170.909V151.829ZM109.495 151.317C109.495 150.923 109.631 150.605 109.905 150.362C110.178 150.119 110.501 149.997 110.873 149.997H122.444C122.849 149.997 123.15 150.113 123.347 150.346C123.544 150.579 123.642 150.835 123.642 151.115C123.642 151.405 123.544 151.666 123.347 151.899C123.15 152.132 122.849 152.248 122.444 152.248H112.416V159.483H122.017C122.422 159.483 122.726 159.599 122.928 159.832C123.131 160.065 123.232 160.321 123.232 160.6C123.232 160.89 123.131 161.152 122.928 161.384C122.726 161.617 122.422 161.734 122.017 161.734H112.416V170.831C112.416 171.049 112.375 171.24 112.293 171.406C112.211 171.571 112.099 171.709 111.957 171.817C111.814 171.926 111.656 172.006 111.481 172.058C111.305 172.11 111.13 172.136 110.955 172.136C110.583 172.136 110.247 172.027 109.946 171.809C109.645 171.592 109.495 171.266 109.495 170.831V151.317ZM135.727 161.144C135.727 162.22 135.875 163.32 136.171 164.443C136.466 165.566 136.931 166.554 137.566 167.408C138.2 168.262 139.015 168.945 140.011 169.457C141.007 169.97 142.205 170.226 143.605 170.226C144.995 170.226 146.188 169.97 147.183 169.457C148.179 168.945 148.997 168.262 149.637 167.408C150.277 166.554 150.745 165.566 151.04 164.443C151.336 163.32 151.483 162.22 151.483 161.144C151.483 160.078 151.336 158.983 151.04 157.86C150.745 156.737 150.277 155.746 149.637 154.887C148.997 154.028 148.179 153.343 147.183 152.83C146.188 152.318 144.995 152.062 143.605 152.062C142.205 152.062 141.007 152.318 140.011 152.83C139.015 153.343 138.2 154.028 137.566 154.887C136.931 155.746 136.466 156.737 136.171 157.86C135.875 158.983 135.727 160.078 135.727 161.144ZM132.593 161.144C132.593 159.56 132.833 158.06 133.315 156.642C133.796 155.224 134.502 154.008 135.432 152.993C136.362 151.979 137.514 151.195 138.887 150.641C140.26 150.088 141.833 149.811 143.605 149.811C145.378 149.811 146.948 150.088 148.316 150.641C149.684 151.195 150.83 151.979 151.754 152.993C152.679 154.008 153.382 155.224 153.863 156.642C154.345 158.06 154.585 159.56 154.585 161.144C154.585 162.727 154.345 164.228 153.863 165.646C153.382 167.064 152.679 168.278 151.754 169.287C150.83 170.296 149.684 171.08 148.316 171.639C146.948 172.198 145.378 172.477 143.605 172.477C141.833 172.477 140.26 172.198 138.887 171.639C137.514 171.08 136.362 170.296 135.432 169.287C134.502 168.278 133.796 167.064 133.315 165.646C132.833 164.228 132.593 162.727 132.593 161.144ZM165.161 151.332C165.161 151.146 165.199 150.972 165.276 150.812C165.352 150.652 165.456 150.512 165.587 150.393C165.719 150.274 165.875 150.178 166.055 150.106C166.236 150.033 166.425 149.997 166.621 149.997H173.646C174.653 149.997 175.651 150.077 176.641 150.238C177.632 150.398 178.521 150.69 179.308 151.115C180.096 151.539 180.734 152.124 181.22 152.869C181.707 153.614 181.951 154.572 181.951 155.741C181.951 156.962 181.535 157.995 180.703 158.838C179.872 159.682 178.69 160.264 177.158 160.585V160.647C177.946 160.761 178.594 160.955 179.103 161.229C179.612 161.503 180.02 161.848 180.326 162.262C180.632 162.676 180.859 163.157 181.007 163.705C181.155 164.254 181.272 164.859 181.36 165.522C181.447 166.329 181.524 167.059 181.59 167.711C181.655 168.363 181.71 168.917 181.754 169.372C181.798 169.9 181.836 170.371 181.869 170.785C181.869 171.23 181.721 171.566 181.426 171.794C181.13 172.022 180.785 172.136 180.392 172.136C180.041 172.136 179.713 172.032 179.407 171.825C179.1 171.618 178.925 171.302 178.882 170.878C178.75 169.615 178.644 168.508 178.562 167.556C178.48 166.603 178.381 165.796 178.266 165.134C178.151 164.471 177.998 163.928 177.807 163.504C177.615 163.079 177.344 162.745 176.994 162.502C176.644 162.259 176.195 162.091 175.648 161.998C175.101 161.905 174.417 161.858 173.597 161.858H168.066V170.831C168.066 171.049 168.025 171.24 167.943 171.406C167.861 171.571 167.748 171.709 167.606 171.817C167.464 171.926 167.305 172.006 167.13 172.058C166.955 172.11 166.78 172.136 166.605 172.136C166.244 172.136 165.913 172.027 165.612 171.809C165.311 171.592 165.161 171.266 165.161 170.831V151.332M172.366 159.7C172.858 159.7 173.362 159.69 173.876 159.669C174.39 159.648 174.891 159.597 175.378 159.514C175.864 159.431 176.321 159.307 176.748 159.141C177.175 158.976 177.549 158.753 177.872 158.474C178.195 158.194 178.449 157.847 178.635 157.433C178.821 157.019 178.914 156.517 178.914 155.927C178.914 155.348 178.832 154.851 178.668 154.437C178.504 154.023 178.285 153.676 178.012 153.397C177.738 153.117 177.418 152.898 177.052 152.737C176.685 152.577 176.297 152.455 175.886 152.372C175.476 152.289 175.06 152.235 174.639 152.209C174.218 152.183 173.81 152.17 173.416 152.17H168.066V159.7H172.366ZM205.886 168.565L213.649 152.31C213.857 151.844 214.057 151.461 214.248 151.161C214.44 150.861 214.642 150.626 214.855 150.455C215.069 150.284 215.304 150.165 215.561 150.098C215.818 150.031 216.116 149.997 216.456 149.997C216.773 149.997 217.071 150.044 217.35 150.137C217.629 150.23 217.872 150.375 218.08 150.571C218.288 150.768 218.452 151.019 218.573 151.324C218.693 151.63 218.753 151.989 218.753 152.403V170.909C218.753 171.313 218.611 171.618 218.327 171.825C218.042 172.032 217.73 172.136 217.391 172.136C217.063 172.136 216.762 172.035 216.488 171.833C216.215 171.631 216.078 171.323 216.078 170.909V152.683L207.593 170.428C207.418 170.821 207.169 171.119 206.846 171.32C206.523 171.522 206.181 171.623 205.82 171.623C205.47 171.623 205.142 171.527 204.835 171.336C204.529 171.144 204.283 170.842 204.097 170.428L195.644 152.807V170.909C195.644 171.313 195.502 171.618 195.218 171.825C194.933 172.032 194.621 172.136 194.282 172.136C193.954 172.136 193.653 172.035 193.38 171.833C193.106 171.631 192.969 171.323 192.969 170.909V152.403C192.969 151.989 193.029 151.63 193.15 151.324C193.27 151.019 193.434 150.768 193.642 150.571C193.85 150.375 194.093 150.23 194.372 150.137C194.651 150.044 194.95 149.997 195.267 149.997C195.606 149.997 195.91 150.031 196.178 150.098C196.446 150.165 196.695 150.287 196.925 150.463C197.154 150.639 197.37 150.879 197.573 151.185C197.775 151.49 197.986 151.876 198.205 152.341L205.804 168.565H205.886ZM249.007 170.459C249.062 170.635 249.089 170.78 249.089 170.894C249.089 171.08 249.045 171.251 248.958 171.406C248.87 171.561 248.753 171.693 248.605 171.802C248.457 171.91 248.29 171.993 248.104 172.05C247.918 172.107 247.732 172.136 247.546 172.136C247.284 172.136 247.038 172.071 246.808 171.941C246.578 171.812 246.414 171.602 246.316 171.313L244.215 166.345H232.611L230.527 171.313C230.417 171.613 230.253 171.825 230.034 171.949C229.815 172.073 229.58 172.136 229.329 172.136C229.143 172.136 228.962 172.107 228.787 172.05C228.612 171.993 228.456 171.91 228.319 171.802C228.182 171.693 228.07 171.564 227.983 171.414C227.895 171.264 227.851 171.101 227.851 170.925C227.851 170.79 227.884 170.635 227.95 170.459L235.762 152.419C235.97 151.901 236.178 151.482 236.386 151.161C236.594 150.841 236.804 150.595 237.018 150.424C237.231 150.253 237.456 150.139 237.691 150.082C237.926 150.025 238.18 149.997 238.454 149.997C238.727 149.997 238.982 150.025 239.217 150.082C239.452 150.139 239.679 150.256 239.898 150.432C240.117 150.608 240.328 150.853 240.53 151.169C240.733 151.485 240.943 151.901 241.162 152.419L249.007 170.459M238.405 152.279L233.432 164.249H243.394L238.438 152.279H238.405ZM254.281 152.264C253.876 152.264 253.573 152.145 253.37 151.907C253.168 151.668 253.067 151.41 253.067 151.13C253.067 150.84 253.168 150.579 253.37 150.346C253.573 150.113 253.876 149.997 254.281 149.997H269.955C270.371 149.997 270.68 150.113 270.883 150.346C271.085 150.579 271.186 150.84 271.186 151.13C271.186 151.41 271.082 151.668 270.874 151.907C270.666 152.145 270.36 152.264 269.955 152.264H263.636V170.816C263.636 171.033 263.595 171.225 263.513 171.39C263.431 171.556 263.319 171.693 263.177 171.802C263.035 171.91 262.876 171.993 262.701 172.05C262.526 172.107 262.351 172.136 262.176 172.136C261.804 172.136 261.467 172.024 261.166 171.802C260.865 171.579 260.715 171.251 260.715 170.816V152.264H254.281ZM280.219 151.317C280.219 151.099 280.26 150.908 280.342 150.742C280.424 150.577 280.536 150.439 280.678 150.331C280.82 150.222 280.979 150.139 281.154 150.082C281.329 150.025 281.51 149.997 281.696 149.997C282.057 149.997 282.388 150.106 282.689 150.323C282.99 150.54 283.14 150.872 283.14 151.317V170.831C283.14 171.049 283.099 171.24 283.017 171.406C282.935 171.571 282.823 171.709 282.681 171.817C282.538 171.926 282.38 172.006 282.205 172.058C282.03 172.11 281.849 172.136 281.663 172.136C281.302 172.136 280.971 172.027 280.67 171.809C280.369 171.592 280.219 171.266 280.219 170.831V151.317ZM293.797 161.237C293.797 159.591 294.038 158.06 294.52 156.642C295.001 155.224 295.707 154.008 296.637 152.993C297.567 151.979 298.718 151.195 300.092 150.641C301.465 150.088 303.038 149.811 304.81 149.811C306.583 149.811 308.15 150.088 309.512 150.641C310.875 151.195 312.021 151.976 312.951 152.985C313.881 153.995 314.584 155.206 315.06 156.618C315.536 158.031 315.774 159.56 315.774 161.206C315.774 162.003 315.678 162.828 315.487 163.682C315.295 164.536 315.027 165.336 314.682 166.081C314.338 166.826 313.916 167.517 313.419 168.153C312.921 168.79 312.371 169.382 311.769 169.931H315.478C315.872 169.931 316.168 170.045 316.365 170.272C316.562 170.5 316.66 170.749 316.66 171.018C316.66 171.308 316.562 171.564 316.365 171.786C316.168 172.009 315.872 172.125 315.478 172.136H307.764C307.196 172.249 306.684 172.335 306.23 172.392C305.776 172.449 305.303 172.477 304.81 172.477C303.038 172.477 301.465 172.208 300.092 171.67C298.718 171.132 297.567 170.358 296.637 169.349C295.707 168.34 295.001 167.126 294.52 165.708C294.038 164.29 293.797 162.8 293.797 161.237M296.932 161.237C296.932 162.293 297.08 163.382 297.375 164.505C297.671 165.628 298.136 166.616 298.77 167.47C299.405 168.324 300.22 169.007 301.216 169.52C302.212 170.032 303.41 170.288 304.81 170.288C306.2 170.288 307.392 170.032 308.388 169.52C309.384 169.007 310.202 168.324 310.842 167.47C311.482 166.616 311.95 165.628 312.245 164.505C312.541 163.382 312.688 162.293 312.688 161.237C312.688 160.109 312.541 158.983 312.245 157.86C311.95 156.737 311.482 155.746 310.842 154.887C310.202 154.028 309.384 153.343 308.388 152.83C307.392 152.318 306.2 152.062 304.81 152.062C303.41 152.062 302.212 152.318 301.216 152.83C300.22 153.343 299.405 154.028 298.77 154.887C298.136 155.746 297.671 156.737 297.375 157.86C297.08 158.983 296.932 160.109 296.932 161.237ZM326.185 151.317C326.185 151.099 326.226 150.908 326.308 150.742C326.39 150.577 326.5 150.439 326.636 150.331C326.773 150.222 326.932 150.139 327.112 150.082C327.293 150.025 327.476 149.997 327.662 149.997C328.023 149.997 328.354 150.106 328.655 150.323C328.956 150.54 329.106 150.872 329.106 151.317V164.373C329.106 165.377 329.284 166.244 329.64 166.973C329.995 167.703 330.463 168.309 331.043 168.79C331.623 169.271 332.285 169.628 333.029 169.861C333.773 170.094 334.534 170.21 335.31 170.21C336.087 170.21 336.848 170.094 337.592 169.861C338.336 169.628 339 169.271 339.586 168.79C340.171 168.309 340.642 167.703 340.997 166.973C341.353 166.244 341.531 165.377 341.531 164.373V151.317C341.531 151.099 341.572 150.908 341.654 150.742C341.736 150.577 341.845 150.439 341.982 150.331C342.119 150.222 342.277 150.139 342.458 150.082C342.639 150.025 342.822 149.997 343.008 149.997C343.369 149.997 343.7 150.106 344.001 150.323C344.302 150.54 344.452 150.872 344.452 151.317V164.435C344.452 165.801 344.198 166.986 343.689 167.99C343.18 168.994 342.502 169.83 341.654 170.498C340.806 171.165 339.832 171.662 338.732 171.988C337.633 172.314 336.492 172.477 335.31 172.477C334.129 172.477 332.988 172.314 331.888 171.988C330.789 171.662 329.818 171.165 328.975 170.498C328.133 169.83 327.457 168.994 326.948 167.99C326.439 166.986 326.185 165.801 326.185 164.435V151.317ZM357.424 172.136C357.238 172.136 357.06 172.099 356.89 172.027C356.721 171.954 356.567 171.856 356.431 171.732C356.294 171.608 356.185 171.465 356.102 171.305C356.02 171.144 355.979 170.976 355.979 170.8V151.332C355.979 151.166 356.012 151.004 356.078 150.843C356.143 150.683 356.239 150.54 356.365 150.416C356.491 150.292 356.636 150.191 356.8 150.113C356.964 150.036 357.145 149.997 357.342 149.997H369.585C369.99 149.997 370.291 150.113 370.488 150.346C370.685 150.579 370.783 150.835 370.783 151.115C370.783 151.405 370.685 151.666 370.488 151.899C370.291 152.132 369.99 152.248 369.585 152.248H358.852V159.622H369.06C369.476 159.622 369.782 159.739 369.979 159.972C370.176 160.205 370.275 160.461 370.275 160.74C370.275 161.02 370.173 161.276 369.971 161.509C369.769 161.742 369.465 161.858 369.06 161.858H358.852V169.884H370.045C370.45 169.884 370.751 170.001 370.948 170.234C371.145 170.467 371.243 170.723 371.243 171.002C371.243 171.292 371.145 171.553 370.948 171.786C370.751 172.019 370.45 172.136 370.045 172.136H357.424Z" fill="#203C64"/>
<path d="M20.1875 32.5114V20.9683H415.525V32.5114H20.1875Z" fill="#203C64"/>
</g>
<defs>
<filter id="filter0_f_30_9" x="0" y="0" width="436" height="193" filterUnits="userSpaceOnUse" color-interpolation-filters="sRGB">
<feFlood flood-opacity="0" result="BackgroundImageFix"/>
<feBlend mode="normal" in="SourceGraphic" in2="BackgroundImageFix" result="shape"/>
<feGaussianBlur stdDeviation="10" result="effect1_foregroundBlur_30_9"/>
</filter>
<clipPath id="clip0_30_9">
<rect width="396" height="153" fill="white" transform="translate(20 20)"/>
</clipPath>
</defs>
</svg>
