<svg width="341" height="144" viewBox="0 0 341 144" fill="none" xmlns="http://www.w3.org/2000/svg">
<rect width="341" height="8" fill="#203C64"/>
<path d="M32.5566 77.924C28.3986 77.924 24.5229 77.2567 20.9296 75.922C17.3876 74.536 14.3076 72.5853 11.6896 70.07C9.07161 67.5547 7.01827 64.603 5.52961 61.215C4.09227 57.827 3.37361 54.1053 3.37361 50.05C3.37361 45.9947 4.09227 42.273 5.52961 38.885C7.01827 35.497 9.07161 32.5453 11.6896 30.03C14.3589 27.5147 17.4646 25.5897 21.0066 24.255C24.5486 22.869 28.4243 22.176 32.6336 22.176C37.3049 22.176 41.5143 22.9973 45.2616 24.64C49.0603 26.2313 52.2429 28.5927 54.8096 31.724L46.8016 39.116C44.9536 37.0113 42.9003 35.4457 40.6416 34.419C38.3829 33.341 35.9189 32.802 33.2496 32.802C30.7343 32.802 28.4243 33.2127 26.3196 34.034C24.2149 34.8553 22.3926 36.036 20.8526 37.576C19.3126 39.116 18.1063 40.9383 17.2336 43.043C16.4123 45.1477 16.0016 47.4833 16.0016 50.05C16.0016 52.6167 16.4123 54.9523 17.2336 57.057C18.1063 59.1617 19.3126 60.984 20.8526 62.524C22.3926 64.064 24.2149 65.2447 26.3196 66.066C28.4243 66.8873 30.7343 67.298 33.2496 67.298C35.9189 67.298 38.3829 66.7847 40.6416 65.758C42.9003 64.68 44.9536 63.063 46.8016 60.907L54.8096 68.299C52.2429 71.4303 49.0603 73.8173 45.2616 75.46C41.5143 77.1027 37.2793 77.924 32.5566 77.924ZM88.2854 77.924C84.0247 77.924 80.072 77.231 76.4274 75.845C72.834 74.459 69.7027 72.5083 67.0334 69.993C64.4154 67.4777 62.362 64.526 60.8734 61.138C59.436 57.75 58.7174 54.054 58.7174 50.05C58.7174 46.046 59.436 42.35 60.8734 38.962C62.362 35.574 64.441 32.6223 67.1104 30.107C69.7797 27.5917 72.911 25.641 76.5044 24.255C80.0977 22.869 83.999 22.176 88.2084 22.176C92.469 22.176 96.3704 22.869 99.9124 24.255C103.506 25.641 106.611 27.5917 109.229 30.107C111.899 32.6223 113.978 35.574 115.466 38.962C116.955 42.2987 117.699 45.9947 117.699 50.05C117.699 54.054 116.955 57.7757 115.466 61.215C113.978 64.603 111.899 67.5547 109.229 70.07C106.611 72.534 103.506 74.459 99.9124 75.845C96.3704 77.231 92.4947 77.924 88.2854 77.924ZM88.2084 67.298C90.621 67.298 92.8284 66.8873 94.8304 66.066C96.8837 65.2447 98.6804 64.064 100.22 62.524C101.76 60.984 102.941 59.1617 103.762 57.057C104.635 54.9523 105.071 52.6167 105.071 50.05C105.071 47.4833 104.635 45.1477 103.762 43.043C102.941 40.9383 101.76 39.116 100.22 37.576C98.7317 36.036 96.9607 34.8553 94.9074 34.034C92.854 33.2127 90.621 32.802 88.2084 32.802C85.7957 32.802 83.5627 33.2127 81.5094 34.034C79.5074 34.8553 77.7364 36.036 76.1964 37.576C74.6564 39.116 73.45 40.9383 72.5774 43.043C71.756 45.1477 71.3454 47.4833 71.3454 50.05C71.3454 52.5653 71.756 54.901 72.5774 57.057C73.45 59.1617 74.6307 60.984 76.1194 62.524C77.6594 64.064 79.456 65.2447 81.5094 66.066C83.5627 66.8873 85.7957 67.298 88.2084 67.298ZM127.074 77V23.1H151.56C157.412 23.1 162.571 24.2293 167.037 26.488C171.503 28.6953 174.994 31.801 177.509 35.805C180.024 39.809 181.282 44.5573 181.282 50.05C181.282 55.4913 180.024 60.2397 177.509 64.295C174.994 68.299 171.503 71.4303 167.037 73.689C162.571 75.8963 157.412 77 151.56 77H127.074ZM139.548 66.759H150.944C154.537 66.759 157.643 66.0917 160.261 64.757C162.93 63.371 164.984 61.4203 166.421 58.905C167.91 56.3897 168.654 53.438 168.654 50.05C168.654 46.6107 167.91 43.659 166.421 41.195C164.984 38.6797 162.93 36.7547 160.261 35.42C157.643 34.034 154.537 33.341 150.944 33.341H139.548V66.759ZM202.162 44.814H228.111V54.516H202.162V44.814ZM203.086 66.99H232.423V77H190.689V23.1H231.422V33.11H203.086V66.99ZM257.767 77L234.513 23.1H247.988L268.316 70.84H260.385L281.021 23.1H293.418L270.087 77H257.767ZM315.628 77.924C311.316 77.924 307.184 77.3593 303.231 76.23C299.278 75.0493 296.096 73.535 293.683 71.687L297.918 62.293C300.228 63.9357 302.949 65.296 306.08 66.374C309.263 67.4007 312.471 67.914 315.705 67.914C318.169 67.914 320.145 67.683 321.634 67.221C323.174 66.7077 324.303 66.0147 325.022 65.142C325.741 64.2693 326.1 63.2683 326.1 62.139C326.1 60.7017 325.535 59.5723 324.406 58.751C323.277 57.8783 321.788 57.1853 319.94 56.672C318.092 56.1073 316.039 55.594 313.78 55.132C311.573 54.6187 309.34 54.0027 307.081 53.284C304.874 52.5653 302.846 51.6413 300.998 50.512C299.15 49.3827 297.636 47.894 296.455 46.046C295.326 44.198 294.761 41.8367 294.761 38.962C294.761 35.882 295.582 33.0843 297.225 30.569C298.919 28.0023 301.434 25.9747 304.771 24.486C308.159 22.946 312.394 22.176 317.476 22.176C320.864 22.176 324.201 22.5867 327.486 23.408C330.771 24.178 333.672 25.3587 336.187 26.95L332.337 36.421C329.822 34.9837 327.306 33.9313 324.791 33.264C322.276 32.5453 319.812 32.186 317.399 32.186C314.986 32.186 313.01 32.4683 311.47 33.033C309.93 33.5977 308.826 34.342 308.159 35.266C307.492 36.1387 307.158 37.1653 307.158 38.346C307.158 39.732 307.723 40.8613 308.852 41.734C309.981 42.5553 311.47 43.2227 313.318 43.736C315.166 44.2493 317.194 44.7627 319.401 45.276C321.66 45.7893 323.893 46.3797 326.1 47.047C328.359 47.7143 330.412 48.6127 332.26 49.742C334.108 50.8713 335.597 52.36 336.726 54.208C337.907 56.056 338.497 58.3917 338.497 61.215C338.497 64.2437 337.65 67.0157 335.956 69.531C334.262 72.0463 331.721 74.074 328.333 75.614C324.996 77.154 320.761 77.924 315.628 77.924Z" fill="#203C64"/>
<rect y="90" width="341" height="8" fill="#203C64"/>
<path d="M46.4556 126.164H56.8156V127.928H46.4556V126.164ZM46.6796 135.208H58.4676V137H44.6076V117.4H58.0476V119.192H46.6796V135.208ZM68.6581 137V117.4H70.3661L83.8901 134.424H82.9941V117.4H85.0381V137H83.3301L69.8341 119.976H70.7301V137H68.6581ZM105.351 137.168C103.858 137.168 102.477 136.925 101.207 136.44C99.9568 135.936 98.8648 135.236 97.9314 134.34C97.0168 133.444 96.2981 132.389 95.7754 131.176C95.2714 129.963 95.0194 128.637 95.0194 127.2C95.0194 125.763 95.2714 124.437 95.7754 123.224C96.2981 122.011 97.0261 120.956 97.9594 120.06C98.8928 119.164 99.9848 118.473 101.235 117.988C102.505 117.484 103.886 117.232 105.379 117.232C106.873 117.232 108.235 117.465 109.467 117.932C110.718 118.399 111.782 119.108 112.659 120.06L111.371 121.376C110.55 120.555 109.645 119.967 108.655 119.612C107.666 119.257 106.602 119.08 105.463 119.08C104.25 119.08 103.13 119.285 102.103 119.696C101.095 120.088 100.209 120.657 99.4434 121.404C98.6968 122.132 98.1088 122.991 97.6794 123.98C97.2688 124.951 97.0634 126.024 97.0634 127.2C97.0634 128.357 97.2688 129.431 97.6794 130.42C98.1088 131.409 98.6968 132.277 99.4434 133.024C100.209 133.752 101.095 134.321 102.103 134.732C103.13 135.124 104.241 135.32 105.435 135.32C106.555 135.32 107.61 135.152 108.599 134.816C109.607 134.48 110.531 133.911 111.371 133.108L112.547 134.676C111.614 135.497 110.522 136.123 109.271 136.552C108.021 136.963 106.714 137.168 105.351 137.168ZM110.559 134.424V127.2H112.547V134.676L110.559 134.424ZM123.732 137V117.4H125.804V137H123.732ZM137.501 137V117.4H139.209L152.733 134.424H151.837V117.4H153.881V137H152.173L138.677 119.976H139.573V137H137.501ZM167.446 126.164H177.806V127.928H167.446V126.164ZM167.67 135.208H179.458V137H165.598V117.4H179.038V119.192H167.67V135.208ZM191.497 126.164H201.857V127.928H191.497V126.164ZM191.721 135.208H203.509V137H189.649V117.4H203.089V119.192H191.721V135.208ZM213.699 137V117.4H221.035C222.697 117.4 224.125 117.671 225.319 118.212C226.514 118.735 227.429 119.5 228.063 120.508C228.717 121.497 229.043 122.701 229.043 124.12C229.043 125.501 228.717 126.696 228.063 127.704C227.429 128.693 226.514 129.459 225.319 130C224.125 130.523 222.697 130.784 221.035 130.784H214.847L215.771 129.832V137H213.699ZM227.083 137L222.043 129.888H224.283L229.351 137H227.083ZM215.771 130L214.847 129.02H220.979C222.939 129.02 224.423 128.591 225.431 127.732C226.458 126.873 226.971 125.669 226.971 124.12C226.971 122.552 226.458 121.339 225.431 120.48C224.423 119.621 222.939 119.192 220.979 119.192H214.847L215.771 118.212V130ZM239.254 137V117.4H241.326V137H239.254ZM253.023 137V117.4H254.731L268.255 134.424H267.359V117.4H269.403V137H267.695L254.199 119.976H255.095V137H253.023ZM289.716 137.168C288.223 137.168 286.841 136.925 285.572 136.44C284.321 135.936 283.229 135.236 282.296 134.34C281.381 133.444 280.663 132.389 280.14 131.176C279.636 129.963 279.384 128.637 279.384 127.2C279.384 125.763 279.636 124.437 280.14 123.224C280.663 122.011 281.391 120.956 282.324 120.06C283.257 119.164 284.349 118.473 285.6 117.988C286.869 117.484 288.251 117.232 289.744 117.232C291.237 117.232 292.6 117.465 293.832 117.932C295.083 118.399 296.147 119.108 297.024 120.06L295.736 121.376C294.915 120.555 294.009 119.967 293.02 119.612C292.031 119.257 290.967 119.08 289.828 119.08C288.615 119.08 287.495 119.285 286.468 119.696C285.46 120.088 284.573 120.657 283.808 121.404C283.061 122.132 282.473 122.991 282.044 123.98C281.633 124.951 281.428 126.024 281.428 127.2C281.428 128.357 281.633 129.431 282.044 130.42C282.473 131.409 283.061 132.277 283.808 133.024C284.573 133.752 285.46 134.321 286.468 134.732C287.495 135.124 288.605 135.32 289.8 135.32C290.92 135.32 291.975 135.152 292.964 134.816C293.972 134.48 294.896 133.911 295.736 133.108L296.912 134.676C295.979 135.497 294.887 136.123 293.636 136.552C292.385 136.963 291.079 137.168 289.716 137.168ZM294.924 134.424V127.2H296.912V134.676L294.924 134.424Z" fill="#203C64"/>
</svg>
