<svg width="244" height="94" viewBox="0 0 244 94" fill="none" xmlns="http://www.w3.org/2000/svg">
<path d="M0.654297 68.7172V61.6138H243.937V68.7172H0.654297Z" fill="#F2F4F6"/>
<path d="M9.81289 26.5747C9.81289 27.3219 10.0762 27.9524 10.6029 28.4661C11.1295 28.9799 11.8166 29.4235 12.6642 29.7971C13.5117 30.1708 14.4704 30.4977 15.5401 30.7779C16.6098 31.0581 17.6878 31.3461 18.774 31.6419C20.5185 32.14 22.1025 32.6693 23.5261 33.2298C24.9496 33.7902 26.1675 34.4596 27.1796 35.238C28.1918 36.0163 28.9735 36.9387 29.5248 38.0051C30.0761 39.0715 30.3518 40.3519 30.3518 41.8463C30.3518 43.4809 30.0103 44.9521 29.3273 46.2597C28.6444 47.5674 27.661 48.6805 26.3773 49.5989C25.0936 50.5174 23.5425 51.2219 21.724 51.7122C19.9054 52.2026 17.8606 52.4478 15.5895 52.4478C14.421 52.4478 13.2443 52.3816 12.0593 52.2493C10.8744 52.117 9.7306 51.9263 8.62795 51.6772C7.5253 51.4281 6.48847 51.1246 5.51748 50.7665C4.54649 50.4085 3.69894 50.0037 2.97481 49.5522C2.25068 49.1008 1.6829 48.6065 1.27146 48.0695C0.860023 47.5324 0.654297 46.9603 0.654297 46.3531C0.654297 45.964 0.740701 45.5826 0.913505 45.2089C1.08631 44.8353 1.30848 44.4967 1.58003 44.1932C1.85158 43.8896 2.15604 43.6444 2.49342 43.4576C2.8308 43.2708 3.16406 43.1774 3.49321 43.1774C3.78944 43.1774 4.07745 43.2241 4.35723 43.3175C4.63701 43.4109 4.9209 43.5238 5.20891 43.6561C5.49692 43.7884 5.79315 43.9324 6.09761 44.0881C6.40207 44.2438 6.7271 44.3839 7.07271 44.5084C8.20827 44.991 9.48373 45.4269 10.8991 45.8161C12.3144 46.2053 13.7956 46.3999 15.3426 46.3999C16.1819 46.3999 16.976 46.3259 17.7248 46.178C18.4736 46.0301 19.1319 45.8044 19.6997 45.5008C20.2675 45.1973 20.716 44.8042 21.0451 44.3216C21.3743 43.839 21.5388 43.2552 21.5388 42.5703C21.5388 42.0565 21.4401 41.5973 21.2426 41.1925C21.0451 40.7878 20.7736 40.4336 20.428 40.1301C20.0823 39.8265 19.6791 39.5618 19.2183 39.3361C18.7575 39.1104 18.272 38.9119 17.7618 38.7407L16.651 38.367C16.437 38.3048 16.2313 38.2386 16.0338 38.1686C15.8363 38.0985 15.6224 38.0323 15.392 37.9701L14.1083 37.6198C13.8285 37.5575 13.5899 37.4992 13.3924 37.4447C13.1949 37.3902 13.018 37.3357 12.8616 37.2812C12.7053 37.2267 12.553 37.1722 12.4049 37.1178C12.2568 37.0633 12.084 37.0049 11.8865 36.9426L9.56602 36.172C8.06839 35.6583 6.7847 35.1212 5.71497 34.5608C4.64523 34.0004 3.77299 33.3699 3.09823 32.6694C2.42347 31.9688 1.92564 31.171 1.60472 30.2759C1.2838 29.3807 1.12334 28.3416 1.12334 27.1585C1.12334 25.6017 1.46483 24.1929 2.14782 22.9319C2.8308 21.6709 3.81002 20.5968 5.08548 19.7095C6.36093 18.8221 7.90793 18.1371 9.72648 17.6546C11.545 17.172 13.5899 16.9307 15.861 16.9307C16.6839 16.9307 17.5808 16.9813 18.5518 17.0824C19.5228 17.1836 20.4938 17.3354 21.4648 17.5378C22.4358 17.7402 23.3697 18.0009 24.2667 18.3201C25.1636 18.6392 25.9577 19.0128 26.6489 19.4409C27.3401 19.869 27.8955 20.3555 28.3152 20.9004C28.7349 21.4452 28.9447 22.0524 28.9447 22.7218C28.9447 23.1109 28.8665 23.469 28.7102 23.7959C28.5538 24.1228 28.344 24.403 28.0807 24.6365C27.8173 24.8701 27.5088 25.053 27.1549 25.1853C26.8011 25.3176 26.4349 25.3838 26.0564 25.3838C25.5627 25.3838 25.1101 25.2826 24.6987 25.0802C23.9252 24.7066 23.2051 24.3875 22.5386 24.1228C21.8721 23.8582 21.2097 23.6402 20.5514 23.469C19.8931 23.2977 19.2142 23.1732 18.5148 23.0954C17.8153 23.0175 17.0459 22.9786 16.2066 22.9786C15.4166 22.9786 14.639 23.0448 13.8738 23.1771C13.1085 23.3094 12.4255 23.5196 11.8248 23.8076C11.2241 24.0956 10.7386 24.4653 10.3683 24.9168C9.99802 25.3682 9.81287 25.9209 9.81287 26.5747L9.81289 26.5747Z" fill="#F2F4F6"/>
<path d="M57.5806 22.2547C57.5806 21.6164 57.6999 21.0209 57.9385 20.4683C58.1771 19.9157 58.5022 19.4331 58.9136 19.0205C59.325 18.608 59.8064 18.285 60.3578 18.0514C60.9091 17.8179 61.5057 17.7012 62.1475 17.7012C62.7894 17.7012 63.3859 17.8179 63.9373 18.0514C64.4886 18.285 64.9741 18.608 65.3938 19.0205C65.8134 19.4331 66.1426 19.9156 66.3812 20.4683C66.6198 21.0209 66.7391 21.6164 66.7391 22.2547V40.1417C66.7391 42.1966 66.3565 43.9907 65.5912 45.5241C64.826 47.0575 63.7562 48.3379 62.382 49.3654C61.0078 50.3928 59.3744 51.1634 57.4818 51.6771C55.5892 52.1909 53.5156 52.4477 51.2609 52.4477C49.0391 52.4477 46.9861 52.1948 45.1017 51.6888C43.2173 51.1829 41.588 50.424 40.2138 49.4121C38.8396 48.4002 37.7658 47.1237 36.9923 45.5825C36.2188 44.0413 35.832 42.2277 35.832 40.1417V22.2547C35.832 21.6164 35.9513 21.0209 36.19 20.4683C36.4286 19.9157 36.7537 19.4331 37.1651 19.0205C37.5765 18.608 38.0579 18.285 38.6092 18.0515C39.1605 17.8179 39.7571 17.7012 40.399 17.7012C41.0408 17.7012 41.6374 17.8179 42.1887 18.0515C42.7401 18.285 43.2256 18.608 43.6452 19.0205C44.0649 19.4331 44.394 19.9157 44.6327 20.4683C44.8713 21.0209 44.9906 21.6164 44.9906 22.2547L45.0153 40.0016C45.0153 41.1224 45.1964 42.0876 45.5584 42.8971C45.9205 43.7066 46.3936 44.3682 46.9779 44.882C47.5621 45.3957 48.2286 45.7771 48.9775 46.0262C49.7263 46.2752 50.4874 46.3998 51.2609 46.3998C52.0509 46.3998 52.8203 46.2752 53.5691 46.0262C54.3179 45.7771 54.9885 45.3957 55.581 44.882C56.1735 44.3682 56.6549 43.7066 57.0252 42.8971C57.3955 42.0876 57.5806 41.1224 57.5806 40.0016L57.5806 22.2547Z" fill="#F2F4F6"/>
<path d="M83.2048 47.077C83.2048 47.7152 83.0813 48.3107 82.8345 48.8633C82.5876 49.416 82.2543 49.8986 81.8347 50.3111C81.415 50.7236 80.9295 51.0467 80.3782 51.2802C79.8269 51.5137 79.2303 51.6304 78.5884 51.6304C77.9466 51.6304 77.35 51.5137 76.7987 51.2802C76.2474 51.0467 75.766 50.7236 75.3545 50.3111C74.9431 49.8986 74.6181 49.416 74.3794 48.8633C74.1408 48.3107 74.0215 47.7152 74.0215 47.077V24.1228C74.0215 23.2354 74.0832 22.3986 74.2066 21.6125C74.3301 20.8263 74.5934 20.1453 74.9966 19.5693C75.3998 18.9933 75.9923 18.5379 76.774 18.2032C77.5557 17.8685 78.6131 17.7012 79.9462 17.7012H88.8579C90.7505 17.7012 92.5732 17.8568 94.3259 18.1682C96.0786 18.4795 97.6297 19.0283 98.9792 19.8145C100.329 20.6006 101.407 21.6709 102.213 23.0252C103.02 24.3796 103.423 26.092 103.423 28.1625C103.423 29.9528 103.073 31.5056 102.374 32.8211C101.674 34.1365 100.687 35.2301 99.4113 36.1019C98.1358 36.9737 96.6011 37.6236 94.8073 38.0517C93.0134 38.4798 91.0303 38.6939 88.8579 38.6939H83.2048V47.077M87.352 33.4866C88.4053 33.4866 89.3681 33.401 90.2403 33.2297C91.1126 33.0585 91.8573 32.7744 92.4744 32.3774C93.0916 31.9804 93.573 31.455 93.9186 30.8012C94.2642 30.1474 94.437 29.2678 94.437 28.1625C94.437 27.0728 94.2724 26.2127 93.9433 25.5822C93.6141 24.9517 93.1574 24.4419 92.5732 24.0527C91.9889 23.6635 91.2895 23.3833 90.4748 23.212C89.6602 23.0408 88.7592 22.9552 87.7717 22.9552H83.2048V33.4866L87.352 33.4866Z" fill="#F2F4F6"/>
<path d="M117.543 47.077C117.543 47.7152 117.419 48.3107 117.172 48.8633C116.926 49.416 116.592 49.8986 116.173 50.3111C115.753 50.7236 115.267 51.0467 114.716 51.2802C114.165 51.5137 113.568 51.6304 112.926 51.6304C112.284 51.6304 111.688 51.5137 111.137 51.2802C110.585 51.0467 110.104 50.7236 109.692 50.3111C109.281 49.8986 108.956 49.416 108.717 48.8633C108.479 48.3107 108.359 47.7152 108.359 47.077V24.1228C108.359 23.2354 108.421 22.3986 108.545 21.6125C108.668 20.8263 108.931 20.1453 109.334 19.5693C109.738 18.9933 110.33 18.5379 111.112 18.2032C111.894 17.8685 112.951 17.7012 114.284 17.7012H123.196C125.088 17.7012 126.911 17.8568 128.664 18.1682C130.417 18.4795 131.968 19.0283 133.317 19.8145C134.667 20.6006 135.745 21.6709 136.551 23.0252C137.357 24.3796 137.761 26.092 137.761 28.1625C137.761 29.9528 137.411 31.5056 136.711 32.8211C136.012 34.1365 135.025 35.2301 133.749 36.1019C132.474 36.9737 130.939 37.6236 129.145 38.0517C127.351 38.4798 125.368 38.6939 123.196 38.6939H117.543V47.077ZM121.69 33.4866C122.743 33.4866 123.706 33.401 124.578 33.2297C125.45 33.0585 126.195 32.7744 126.812 32.3774C127.429 31.9804 127.911 31.455 128.256 30.8012C128.602 30.1474 128.775 29.2678 128.775 28.1625C128.775 27.0728 128.61 26.2127 128.281 25.5822C127.952 24.9517 127.495 24.4419 126.911 24.0527C126.327 23.6635 125.627 23.3833 124.813 23.212C123.998 23.0408 123.097 22.9552 122.11 22.9552H117.543V33.4866L121.69 33.4866Z" fill="#F2F4F6"/>
<path d="M151.228 34.6701C151.228 38.5309 151.878 41.4459 153.178 43.4152C154.478 45.3845 156.511 46.3691 159.276 46.3691C161.991 46.3691 164.015 45.3883 165.348 43.4268C166.682 41.4653 167.348 38.5464 167.348 34.6701C167.348 32.8021 167.188 31.1402 166.867 29.6847C166.546 28.2291 166.056 27.0032 165.398 26.0069C164.74 25.0105 163.904 24.2516 162.892 23.7301C161.88 23.2086 160.675 22.9479 159.276 22.9479C157.893 22.9479 156.696 23.2086 155.684 23.7301C154.672 24.2516 153.836 25.0105 153.178 26.0069C152.52 27.0032 152.03 28.2291 151.709 29.6847C151.388 31.1402 151.228 32.802 151.228 34.6701M141.625 34.6701C141.625 32.1015 141.991 29.7275 142.724 27.548C143.456 25.3686 144.554 23.4927 146.019 21.9204C147.484 20.3481 149.319 19.1183 151.524 18.2309C153.729 17.3436 156.313 16.8999 159.276 16.8999C162.156 16.8999 164.698 17.328 166.904 18.1842C169.109 19.0404 170.952 20.2508 172.433 21.8153C173.915 23.3799 175.034 25.2518 175.791 27.4313C176.548 29.6107 176.926 32.0237 176.926 34.6701C176.926 37.2699 176.556 39.6595 175.815 41.839C175.075 44.0184 173.964 45.8904 172.483 47.4549C171.002 49.0195 169.158 50.2376 166.953 51.1094C164.748 51.9812 162.189 52.417 159.276 52.417C156.428 52.417 153.906 51.9967 151.709 51.1561C149.512 50.3154 147.665 49.1206 146.167 47.5717C144.67 46.0227 143.538 44.1585 142.773 41.9791C142.008 39.7996 141.625 37.3633 141.625 34.6701Z" fill="#F2F4F6"/>
<path d="M191.725 47.077C191.725 47.7152 191.606 48.3107 191.367 48.8633C191.128 49.416 190.799 49.8986 190.38 50.3111C189.96 50.7236 189.474 51.0467 188.923 51.2802C188.372 51.5137 187.775 51.6304 187.133 51.6304C186.492 51.6304 185.895 51.5137 185.344 51.2802C184.792 51.0467 184.311 50.7236 183.899 50.3111C183.488 49.8986 183.163 49.416 182.924 48.8633C182.686 48.3107 182.566 47.7152 182.566 47.077V21.9978C182.566 21.2817 182.719 20.6551 183.023 20.118C183.328 19.5809 183.735 19.1334 184.245 18.7753C184.755 18.4173 185.352 18.1487 186.035 17.9697C186.718 17.7907 187.438 17.7012 188.195 17.7012H198.094C199.921 17.7012 201.674 17.814 203.352 18.0398C205.031 18.2655 206.508 18.6897 207.783 19.3124C209.059 19.9351 210.079 20.7991 210.844 21.9044C211.61 23.0097 211.992 24.4497 211.992 26.2244C211.992 27.1895 211.852 28.1041 211.573 28.9681C211.293 29.8321 210.84 30.6105 210.215 31.3032C209.59 31.996 208.771 32.5876 207.759 33.0779C206.747 33.5683 205.508 33.9302 204.043 34.1637V34.2572C205.097 34.3817 205.998 34.5646 206.747 34.8059C207.495 35.0472 208.133 35.3663 208.66 35.7633C209.186 36.1603 209.614 36.639 209.943 37.1994C210.273 37.7598 210.544 38.4214 210.758 39.1843C210.972 39.9471 211.145 40.8149 211.276 41.7879C211.408 42.7609 211.532 43.8623 211.647 45.0921C211.68 45.4346 211.704 45.7654 211.721 46.0845C211.737 46.4037 211.746 46.7189 211.746 47.0302C211.746 47.6996 211.68 48.3146 211.548 48.875C211.416 49.4354 211.186 49.918 210.857 50.3228C210.528 50.7275 210.075 51.0428 209.499 51.2685C208.923 51.4942 208.182 51.6071 207.277 51.6071C206.454 51.6071 205.767 51.4281 205.216 51.07C204.665 50.712 204.208 50.2216 203.846 49.5989C203.484 48.9762 203.208 48.2562 203.019 47.4389C202.83 46.6216 202.677 45.7459 202.562 44.8119C202.398 43.4575 202.229 42.325 202.056 41.4143C201.883 40.5036 201.608 39.768 201.229 39.2076C200.851 38.6472 200.312 38.2502 199.612 38.0167C198.913 37.7832 197.954 37.6664 196.736 37.6664H191.725V47.077M195.527 32.249C196.415 32.249 197.304 32.1984 198.193 32.0972C199.081 31.996 199.884 31.7858 200.6 31.4667C201.316 31.1476 201.896 30.6805 202.34 30.0656C202.784 29.4507 203.007 28.6295 203.007 27.6021C203.007 26.4189 202.793 25.5316 202.365 24.94C201.937 24.3485 201.369 23.9048 200.661 23.609C199.954 23.3132 199.135 23.1303 198.205 23.0603C197.275 22.9902 196.308 22.9552 195.304 22.9552H191.577V32.249H195.527Z" fill="#F2F4F6"/>
<path d="M217.868 23.8892C217.391 23.8892 216.938 23.8075 216.51 23.6441C216.082 23.4806 215.708 23.2588 215.387 22.9786C215.066 22.6983 214.811 22.3714 214.622 21.9978C214.433 21.6242 214.338 21.2272 214.338 20.8069C214.338 20.3866 214.433 19.9857 214.622 19.6043C214.811 19.2229 215.066 18.8921 215.387 18.6119C215.708 18.3317 216.082 18.1098 216.51 17.9464C216.938 17.7829 217.391 17.7012 217.868 17.7012H240.407C240.884 17.7012 241.336 17.7829 241.764 17.9464C242.192 18.1098 242.567 18.3317 242.887 18.6119C243.208 18.8921 243.463 19.2229 243.653 19.6043C243.842 19.9857 243.937 20.3866 243.937 20.8069C243.937 21.2272 243.842 21.6242 243.653 21.9978C243.463 22.3714 243.208 22.6983 242.887 22.9786C242.567 23.2588 242.192 23.4806 241.764 23.6441C241.336 23.8075 240.884 23.8892 240.407 23.8892H233.791V47.077C233.791 47.7152 233.671 48.3107 233.433 48.8633C233.194 49.416 232.865 49.8986 232.445 50.3111C232.026 50.7236 231.54 51.0467 230.989 51.2802C230.437 51.5137 229.841 51.6305 229.199 51.6305C228.557 51.6305 227.961 51.5137 227.409 51.2802C226.858 51.0467 226.377 50.7236 225.965 50.3111C225.554 49.8986 225.229 49.416 224.99 48.8633C224.751 48.3107 224.632 47.7152 224.632 47.077V23.8892H217.868Z" fill="#F2F4F6"/>
<path d="M28.3145 80.875C28.3145 80.7412 28.3397 80.6234 28.3902 80.5215C28.4407 80.4196 28.5097 80.3352 28.5973 80.2683C28.6848 80.2014 28.7824 80.1505 28.8901 80.1154C28.9979 80.0804 29.109 80.0629 29.2234 80.0629C29.4456 80.0629 29.6493 80.1298 29.8345 80.2635C30.0197 80.3973 30.1122 80.6011 30.1122 80.875V92.884C30.1122 93.0177 30.087 93.1356 30.0365 93.2375C29.986 93.3394 29.917 93.4238 29.8294 93.4907C29.7419 93.5575 29.6443 93.6069 29.5365 93.6387C29.4288 93.6706 29.3177 93.6865 29.2032 93.6865C28.981 93.6865 28.7774 93.6196 28.5922 93.4859C28.407 93.3521 28.3145 93.1515 28.3145 92.884V80.875ZM37.1958 81.1902C37.1958 81.0119 37.2278 80.8527 37.2917 80.7125C37.3557 80.5724 37.4399 80.4546 37.5442 80.3591C37.6486 80.2635 37.7698 80.1903 37.9078 80.1393C38.0459 80.0884 38.1889 80.0629 38.3371 80.0629C38.5323 80.0629 38.7225 80.1075 38.9077 80.1966C39.0929 80.2858 39.2595 80.4259 39.4077 80.617L47.0533 91.5178V80.8272C47.0533 80.6998 47.0769 80.5883 47.124 80.4928C47.1711 80.3973 47.2351 80.3177 47.3159 80.254C47.3967 80.1903 47.4876 80.1425 47.5886 80.1107C47.6896 80.0788 47.794 80.0629 47.9017 80.0629C48.0027 80.0629 48.1037 80.0788 48.2047 80.1107C48.3057 80.1425 48.3966 80.1903 48.4774 80.254C48.5582 80.3177 48.6222 80.3973 48.6693 80.4928C48.7164 80.5883 48.74 80.6998 48.74 80.8272V92.5592C48.74 92.7375 48.7063 92.8967 48.639 93.0368C48.5717 93.177 48.4808 93.2948 48.3663 93.3903C48.2518 93.4859 48.1222 93.5591 47.9774 93.6101C47.8327 93.661 47.6795 93.6865 47.5179 93.6865C47.3226 93.6865 47.1274 93.6419 46.9321 93.5527C46.7368 93.4636 46.5651 93.3234 46.417 93.1324L38.8926 82.3844V92.9317C38.8926 93.0591 38.8673 93.169 38.8168 93.2614C38.7663 93.3537 38.7007 93.4317 38.6199 93.4954C38.5391 93.5591 38.4482 93.6069 38.3472 93.6387C38.2462 93.6706 38.1418 93.6865 38.0341 93.6865C37.8186 93.6865 37.625 93.6244 37.4533 93.5002C37.2816 93.376 37.1958 93.1865 37.1958 92.9318V81.1902ZM55.6114 80.875C55.6114 80.6329 55.6956 80.4371 55.8639 80.2874C56.0323 80.1377 56.2309 80.0629 56.4598 80.0629H63.5803C63.8294 80.0629 64.0146 80.1345 64.1358 80.2778C64.257 80.4211 64.3176 80.5788 64.3176 80.7508C64.3176 80.9291 64.257 81.0899 64.1358 81.2332C64.0146 81.3765 63.8294 81.4482 63.5803 81.4482H57.4092V85.9002H63.3177C63.5668 85.9002 63.7537 85.9719 63.8782 86.1152C64.0028 86.2585 64.0651 86.4161 64.0651 86.5881C64.0651 86.7664 64.0028 86.9272 63.8782 87.0705C63.7537 87.2139 63.5668 87.2855 63.3177 87.2855H57.4092V92.884C57.4092 93.0177 57.384 93.1356 57.3335 93.2375C57.283 93.3394 57.214 93.4238 57.1264 93.4907C57.0389 93.5575 56.9413 93.6069 56.8335 93.6387C56.7258 93.6706 56.6181 93.6865 56.5103 93.6865C56.2814 93.6865 56.0743 93.6196 55.8892 93.4859C55.704 93.3521 55.6114 93.1515 55.6114 92.884V80.875ZM71.7546 86.9225C71.7546 87.5849 71.8455 88.2616 72.0273 88.9526C72.2091 89.6437 72.4953 90.2519 72.8858 90.7774C73.2763 91.3028 73.778 91.7232 74.3907 92.0385C75.0034 92.3537 75.7407 92.5114 76.6026 92.5114C77.4577 92.5114 78.1916 92.3537 78.8044 92.0385C79.4171 91.7232 79.9204 91.3028 80.3143 90.7774C80.7082 90.2519 80.996 89.6437 81.1778 88.9526C81.3596 88.2616 81.4505 87.5849 81.4505 86.9225C81.4505 86.2664 81.3596 85.5929 81.1778 84.9018C80.9961 84.2108 80.7082 83.601 80.3143 83.0723C79.9204 82.5437 79.4171 82.1217 78.8044 81.8064C78.1916 81.4912 77.4577 81.3335 76.6026 81.3335C75.7407 81.3335 75.0034 81.4912 74.3907 81.8064C73.778 82.1217 73.2763 82.5437 72.8858 83.0723C72.4953 83.601 72.2091 84.2108 72.0273 84.9018C71.8455 85.5929 71.7546 86.2664 71.7546 86.9225ZM69.8255 86.9225C69.8255 85.948 69.9736 85.0244 70.2699 84.1519C70.5662 83.2793 71.0005 82.5309 71.5728 81.9067C72.1451 81.2826 72.8538 80.8001 73.6988 80.4594C74.5439 80.1186 75.5118 79.9482 76.6026 79.9482C77.6934 79.9482 78.6596 80.1186 79.5013 80.4594C80.3429 80.8001 81.0482 81.2826 81.6172 81.9067C82.1861 82.5309 82.6188 83.2793 82.915 84.1519C83.2113 85.0244 83.3594 85.948 83.3594 86.9225C83.3594 87.8969 83.2113 88.8205 82.915 89.693C82.6188 90.5656 82.1861 91.3124 81.6172 91.9334C81.0482 92.5544 80.3429 93.0369 79.5013 93.3808C78.6596 93.7247 77.6934 93.8967 76.6026 93.8967C75.5118 93.8967 74.5439 93.7247 73.6988 93.3808C72.8538 93.0369 72.1451 92.5544 71.5728 91.9334C71.0005 91.3124 70.5662 90.5656 70.2699 89.693C69.9736 88.8205 69.8255 87.897 69.8255 86.9225ZM89.8673 80.8845C89.8673 80.7699 89.8908 80.6632 89.938 80.5644C89.9851 80.4657 90.0491 80.3797 90.1299 80.3065C90.2107 80.2333 90.3066 80.1743 90.4177 80.1298C90.5288 80.0852 90.645 80.0629 90.7662 80.0629H95.0889C95.7084 80.0629 96.3228 80.1123 96.9322 80.211C97.5415 80.3097 98.0886 80.4896 98.5734 80.7508C99.0582 81.0119 99.4504 81.3717 99.7501 81.8303C100.05 82.2889 100.199 82.878 100.199 83.5978C100.199 84.3493 99.9436 84.9846 99.4319 85.5037C98.9202 86.0228 98.193 86.3811 97.2503 86.5785V86.6167C97.7351 86.6868 98.1341 86.8062 98.4472 86.975C98.7603 87.1438 99.0111 87.3556 99.1996 87.6103C99.3881 87.8651 99.5279 88.1613 99.6188 88.4988C99.7097 88.8364 99.782 89.209 99.8359 89.6166C99.8898 90.1134 99.9369 90.5624 99.9773 90.9637C100.018 91.3649 100.051 91.7057 100.078 91.9859C100.105 92.3108 100.129 92.6006 100.149 92.8553C100.149 93.1292 100.058 93.3362 99.8763 93.4763C99.6945 93.6164 99.4824 93.6865 99.24 93.6865C99.0245 93.6865 98.8225 93.6228 98.634 93.4954C98.4455 93.368 98.3377 93.1738 98.3108 92.9126C98.23 92.1356 98.1644 91.4541 98.1139 90.8682C98.0634 90.2822 98.0028 89.7854 97.9321 89.3778C97.8614 88.9701 97.7671 88.6358 97.6493 88.3746C97.5314 88.1135 97.3648 87.9081 97.1493 87.7584C96.9338 87.6087 96.6578 87.5052 96.3211 87.4479C95.9845 87.3906 95.5636 87.3619 95.0586 87.3619H91.655V92.884C91.655 93.0177 91.6297 93.1356 91.5792 93.2375C91.5287 93.3394 91.4597 93.4238 91.3722 93.4907C91.2846 93.5575 91.187 93.6069 91.0793 93.6387C90.9715 93.6706 90.8638 93.6865 90.7561 93.6865C90.5339 93.6865 90.3302 93.6196 90.145 93.4859C89.9598 93.3521 89.8673 93.1515 89.8673 92.884V80.8845M94.3011 86.034C94.6041 86.034 94.9139 86.0276 95.2303 86.0148C95.5468 86.0021 95.8548 85.9703 96.1545 85.9193C96.4541 85.8684 96.7352 85.7919 96.9978 85.69C97.2604 85.5881 97.491 85.4512 97.6897 85.2792C97.8883 85.1072 98.0448 84.8939 98.1593 84.6391C98.2738 84.3844 98.331 84.0755 98.331 83.7124C98.331 83.3557 98.2805 83.05 98.1795 82.7952C98.0785 82.5405 97.9438 82.3271 97.7755 82.1552C97.6072 81.9832 97.4102 81.8478 97.1847 81.7491C96.9591 81.6504 96.7201 81.5756 96.4676 81.5246C96.2151 81.4736 95.9592 81.4402 95.7 81.4243C95.4407 81.4084 95.1899 81.4004 94.9475 81.4004H91.6549V86.034H94.3011ZM114.929 91.4892L119.706 81.4864C119.834 81.1998 119.957 80.9641 120.075 80.7794C120.192 80.5947 120.317 80.4498 120.448 80.3447C120.58 80.2396 120.724 80.1664 120.883 80.125C121.041 80.0836 121.224 80.0629 121.433 80.0629C121.628 80.0629 121.812 80.0915 121.983 80.1489C122.155 80.2062 122.305 80.2954 122.433 80.4164C122.561 80.5374 122.662 80.6918 122.736 80.8797C122.81 81.0676 122.847 81.2889 122.847 81.5437V92.9317C122.847 93.1801 122.759 93.368 122.584 93.4954C122.409 93.6228 122.217 93.6865 122.009 93.6865C121.807 93.6865 121.622 93.6244 121.453 93.5002C121.285 93.376 121.201 93.1865 121.201 92.9317V81.7157L115.979 92.6356C115.871 92.8776 115.718 93.0607 115.52 93.1849C115.321 93.3091 115.11 93.3712 114.888 93.3712C114.673 93.3712 114.471 93.3123 114.282 93.1945C114.094 93.0767 113.942 92.8904 113.828 92.6356L108.626 81.7921V92.9318C108.626 93.1802 108.539 93.368 108.364 93.4954C108.189 93.6228 107.997 93.6865 107.788 93.6865C107.586 93.6865 107.401 93.6244 107.233 93.5002C107.064 93.376 106.98 93.1865 106.98 92.9318V81.5437C106.98 81.289 107.017 81.0676 107.091 80.8797C107.165 80.6918 107.266 80.5374 107.394 80.4164C107.522 80.2954 107.672 80.2062 107.844 80.1489C108.015 80.0915 108.199 80.0629 108.394 80.0629C108.603 80.0629 108.79 80.0836 108.955 80.125C109.12 80.1664 109.273 80.2412 109.414 80.3495C109.555 80.4578 109.688 80.6059 109.813 80.7938C109.938 80.9816 110.067 81.2189 110.202 81.5055L114.878 91.4892H114.929ZM141.465 92.6547C141.498 92.763 141.515 92.8521 141.515 92.9222C141.515 93.0369 141.488 93.1419 141.434 93.2375C141.381 93.333 141.308 93.4142 141.217 93.4811C141.126 93.548 141.024 93.5989 140.909 93.634C140.795 93.669 140.68 93.6865 140.566 93.6865C140.404 93.6865 140.253 93.6467 140.111 93.5671C139.97 93.4875 139.869 93.3585 139.808 93.1801L138.516 90.123H131.375L130.092 93.1801C130.025 93.3649 129.924 93.4954 129.789 93.5719C129.655 93.6483 129.51 93.6865 129.355 93.6865C129.24 93.6865 129.129 93.669 129.022 93.634C128.914 93.5989 128.818 93.548 128.734 93.4811C128.65 93.4142 128.581 93.3346 128.527 93.2423C128.473 93.1499 128.446 93.0496 128.446 92.9413C128.446 92.8585 128.466 92.763 128.506 92.6547L133.314 81.5533C133.442 81.2348 133.57 80.9769 133.698 80.7794C133.826 80.582 133.955 80.4307 134.087 80.3256C134.218 80.2205 134.356 80.1505 134.501 80.1154C134.646 80.0804 134.802 80.0629 134.97 80.0629C135.139 80.0629 135.295 80.0804 135.44 80.1154C135.585 80.1505 135.725 80.2221 135.859 80.3304C135.994 80.4387 136.124 80.5899 136.248 80.7842C136.373 80.9785 136.502 81.2348 136.637 81.5533L141.465 92.6547ZM134.94 81.4673L131.88 88.8332H138.011L134.96 81.4673H134.94ZM144.71 81.4577C144.461 81.4577 144.274 81.3845 144.15 81.238C144.025 81.0915 143.963 80.9323 143.963 80.7603C143.963 80.582 144.025 80.4211 144.15 80.2778C144.274 80.1345 144.461 80.0629 144.71 80.0629H154.356C154.612 80.0629 154.802 80.1345 154.926 80.2778C155.051 80.4211 155.113 80.582 155.113 80.7603C155.113 80.9323 155.049 81.0915 154.921 81.238C154.793 81.3845 154.605 81.4577 154.356 81.4577H150.467V92.8744C150.467 93.0082 150.442 93.126 150.391 93.2279C150.341 93.3298 150.272 93.4142 150.184 93.4811C150.097 93.548 149.999 93.5989 149.892 93.634C149.784 93.669 149.676 93.6865 149.568 93.6865C149.339 93.6865 149.132 93.618 148.947 93.4811C148.762 93.3442 148.669 93.1419 148.669 92.8744V81.4577H144.71ZM160.672 80.875C160.672 80.7412 160.697 80.6234 160.747 80.5215C160.798 80.4196 160.867 80.3352 160.954 80.2683C161.042 80.2014 161.14 80.1505 161.247 80.1154C161.355 80.0804 161.466 80.0629 161.581 80.0629C161.803 80.0629 162.007 80.1298 162.192 80.2635C162.377 80.3973 162.469 80.6011 162.469 80.875V92.884C162.469 93.0177 162.444 93.1356 162.394 93.2375C162.343 93.3394 162.274 93.4238 162.187 93.4907C162.099 93.5575 162.001 93.6069 161.894 93.6387C161.786 93.6706 161.675 93.6865 161.56 93.6865C161.338 93.6865 161.135 93.6196 160.949 93.4859C160.764 93.3521 160.672 93.1515 160.672 92.884V80.875ZM169.028 86.9798C169.028 85.9671 169.176 85.0245 169.472 84.1519C169.768 83.2793 170.203 82.5309 170.775 81.9068C171.347 81.2826 172.056 80.8001 172.901 80.4594C173.746 80.1186 174.714 79.9482 175.805 79.9482C176.896 79.9482 177.86 80.1186 178.698 80.4594C179.537 80.8001 180.242 81.281 180.814 81.902C181.387 82.523 181.819 83.2682 182.112 84.1375C182.405 85.0069 182.552 85.948 182.552 86.9607C182.552 87.4511 182.493 87.959 182.375 88.4845C182.257 89.0099 182.092 89.502 181.88 89.9605C181.668 90.4191 181.409 90.8443 181.102 91.236C180.796 91.6277 180.457 91.9923 180.087 92.3299H182.37C182.612 92.3299 182.794 92.3999 182.915 92.54C183.036 92.6802 183.097 92.833 183.097 92.9986C183.097 93.177 183.036 93.3346 182.915 93.4715C182.794 93.6085 182.612 93.6801 182.37 93.6865H177.623C177.273 93.7566 176.958 93.8091 176.678 93.8441C176.399 93.8792 176.108 93.8967 175.805 93.8967C174.714 93.8967 173.746 93.7311 172.901 93.3999C172.056 93.0687 171.347 92.5926 170.775 91.9716C170.203 91.3506 169.768 90.6038 169.472 89.7313C169.176 88.8587 169.028 87.9415 169.028 86.9798ZM170.957 86.9798C170.957 87.6294 171.048 88.2998 171.23 88.9909C171.411 89.6819 171.698 90.2902 172.088 90.8156C172.479 91.3411 172.98 91.7614 173.593 92.0767C174.206 92.392 174.943 92.5496 175.805 92.5496C176.66 92.5496 177.394 92.392 178.007 92.0767C178.619 91.7614 179.123 91.3411 179.517 90.8156C179.91 90.2902 180.198 89.6819 180.38 88.9909C180.562 88.2998 180.653 87.6294 180.653 86.9798C180.653 86.2855 180.562 85.5929 180.38 84.9018C180.198 84.2108 179.91 83.601 179.517 83.0723C179.123 82.5437 178.619 82.1217 178.007 81.8064C177.394 81.4912 176.66 81.3335 175.805 81.3335C174.943 81.3335 174.206 81.4912 173.593 81.8064C172.98 82.1217 172.479 82.5437 172.088 83.0723C171.698 83.601 171.411 84.2108 171.23 84.9018C171.048 85.5929 170.957 86.2855 170.957 86.9798ZM188.958 80.875C188.958 80.7412 188.984 80.6234 189.034 80.5215C189.085 80.4196 189.152 80.3352 189.236 80.2683C189.32 80.2014 189.418 80.1505 189.529 80.1154C189.64 80.0804 189.753 80.0629 189.867 80.0629C190.09 80.0629 190.293 80.1298 190.478 80.2635C190.664 80.3973 190.756 80.6011 190.756 80.875V88.9096C190.756 89.5274 190.866 90.0609 191.084 90.5099C191.303 90.9589 191.591 91.3315 191.948 91.6277C192.305 91.9238 192.712 92.1436 193.17 92.2869C193.628 92.4302 194.096 92.5018 194.574 92.5018C195.052 92.5018 195.52 92.4302 195.978 92.2869C196.436 92.1436 196.845 91.9238 197.205 91.6277C197.565 91.3315 197.855 90.9589 198.074 90.5099C198.292 90.0609 198.402 89.5274 198.402 88.9096V80.875C198.402 80.7412 198.427 80.6234 198.478 80.5215C198.528 80.4196 198.595 80.3352 198.68 80.2683C198.764 80.2014 198.861 80.1505 198.972 80.1154C199.084 80.0804 199.196 80.0629 199.311 80.0629C199.533 80.0629 199.737 80.1298 199.922 80.2635C200.107 80.3973 200.2 80.6011 200.2 80.875V88.9478C200.2 89.7886 200.043 90.5179 199.73 91.1357C199.417 91.7535 198.999 92.2678 198.478 92.6786C197.956 93.0894 197.356 93.3951 196.68 93.5957C196.003 93.7964 195.301 93.8967 194.574 93.8967C193.847 93.8967 193.145 93.7964 192.468 93.5957C191.791 93.3951 191.194 93.0894 190.675 92.6786C190.157 92.2678 189.741 91.7535 189.428 91.1357C189.115 90.5179 188.958 89.7886 188.958 88.9478V80.875ZM208.182 93.6865C208.068 93.6865 207.958 93.6642 207.854 93.6196C207.749 93.575 207.655 93.5145 207.571 93.4381C207.487 93.3617 207.42 93.2741 207.369 93.1754C207.319 93.0767 207.293 92.9732 207.293 92.8649V80.8845C207.293 80.7826 207.313 80.6823 207.354 80.5836C207.394 80.4849 207.453 80.3973 207.531 80.3208C207.608 80.2444 207.697 80.1823 207.798 80.1346C207.899 80.0868 208.01 80.0629 208.132 80.0629H215.666C215.915 80.0629 216.1 80.1345 216.222 80.2778C216.343 80.4211 216.403 80.5788 216.403 80.7508C216.403 80.9291 216.343 81.0899 216.222 81.2332C216.1 81.3765 215.915 81.4482 215.666 81.4482H209.061V85.9862H215.343C215.599 85.9862 215.787 86.0578 215.908 86.2011C216.03 86.3445 216.09 86.5021 216.09 86.6741C216.09 86.846 216.028 87.0037 215.903 87.147C215.779 87.2903 215.592 87.3619 215.343 87.3619H209.061V92.3012H215.949C216.198 92.3012 216.383 92.3729 216.504 92.5162C216.626 92.6595 216.686 92.8171 216.686 92.9891C216.686 93.1674 216.626 93.3282 216.504 93.4715C216.383 93.6149 216.198 93.6865 215.949 93.6865H208.182Z" fill="#F2F4F6"/>
<path d="M0.654297 7.76457V0.661133H243.937V7.76457H0.654297Z" fill="#F2F4F6"/>
</svg>
