<svg width="212" height="213" viewBox="0 0 212 213" fill="none" xmlns="http://www.w3.org/2000/svg">
<g opacity="0.2">
<path d="M0.247809 212.5C-0.404366 181.13 -1.05654 149.826 16.3567 131.499C33.77 113.173 69.2487 107.955 90.1185 90.7379C111.054 73.5855 117.38 44.4981 135.249 27.5414C153.119 10.5847 182.533 5.69333 211.881 0.867188L211.881 192.5C211.881 203.546 202.927 212.5 191.881 212.5L0.247809 212.5Z" fill="#CCDEEC"/>
<path d="M70.8139 212.5C70.3574 191.63 69.9009 170.695 81.5097 158.499C93.1185 146.304 116.793 142.782 130.684 131.303C144.641 119.89 148.88 100.52 160.815 89.1724C172.685 77.8897 192.315 74.6288 211.881 71.4331L211.881 192.5C211.881 203.546 202.927 212.5 191.881 212.5L70.8139 212.5Z" fill="#70B6D5"/>
<path d="M141.315 212.5C141.119 202.065 140.923 191.63 146.728 185.5C152.532 179.369 164.337 177.674 171.315 171.934C178.293 166.195 180.38 156.478 186.315 150.869C192.315 145.195 202.098 143.565 211.881 141.934L211.881 192.5C211.881 203.546 202.927 212.5 191.881 212.5L141.315 212.5Z" fill="#24A3C6"/>
</g>
</svg>
